<svg width="24" height="24" viewBox="0 0 24 24" fill="none" xmlns="http://www.w3.org/2000/svg">
<path fill-rule="evenodd" clip-rule="evenodd" d="M3.67596 12.4947C3.67596 12.9642 4.05652 13.3447 4.52596 13.3447L17.8034 13.3447C18.2728 13.3447 18.6534 12.9642 18.6534 12.4947C18.6534 12.0253 18.2728 11.6447 17.8034 11.6447L4.52596 11.6447C4.05652 11.6447 3.67596 12.0253 3.67596 12.4947Z" fill="white"/>
<path fill-rule="evenodd" clip-rule="evenodd" d="M13.8863 18.0747C14.2182 18.4067 14.7564 18.4067 15.0883 18.0747L19.3832 13.7799C20.1057 13.0574 20.1057 11.8861 19.3832 11.1636L15.108 6.88842C14.7761 6.55648 14.2379 6.55648 13.9059 6.88842C13.574 7.22037 13.574 7.75856 13.9059 8.09051L18.1811 12.3657C18.2397 12.4243 18.2397 12.5192 18.1811 12.5778L13.8863 16.8727C13.5543 17.2046 13.5543 17.7428 13.8863 18.0747Z" fill="white"/>
</svg>
