<svg width="189" height="78" viewBox="0 0 189 78" fill="none" xmlns="http://www.w3.org/2000/svg">
<path d="M188.919 59.3949C189.137 58.8875 188.902 58.2994 188.395 58.0813L180.126 54.527C179.619 54.3089 179.031 54.5434 178.813 55.0508C178.595 55.5582 178.829 56.1463 179.337 56.3644L186.686 59.5238L183.527 66.8735C183.309 67.3809 183.543 67.969 184.051 68.1871C184.558 68.4053 185.146 68.1707 185.364 67.6634L188.919 59.3949ZM0.0275398 1.23307C4.91521 21.6265 20.2174 48.9925 50.2568 64.9086C80.3275 80.8413 124.981 85.2045 188.37 59.9289L187.63 58.0711C124.619 83.1955 80.6058 78.7254 51.1932 63.1414C21.7493 47.5408 6.75145 20.7069 1.97246 0.766931L0.0275398 1.23307Z" fill="black"/>
</svg>
