<svg width="24" height="24" viewBox="0 0 24 24" fill="none" xmlns="http://www.w3.org/2000/svg">
<g clip-path="url(#clip0_5604_2953)">
<path fill-rule="evenodd" clip-rule="evenodd" d="M0.206421 2.67616L14.0411 0.00390625L13.9931 23.9959L0.206421 21.135V2.67616ZM5.11185 15.1353C4.06558 13.9106 3.774 11.9862 4.27484 10.3876C4.9712 8.16475 6.73784 7.4135 8.21633 7.92805C9.0602 8.22307 9.81145 8.93315 10.2128 10.0206C10.4049 10.542 10.5078 11.1389 10.5147 11.7461C10.5284 12.8369 10.1511 14.1199 9.40323 15.0152C8.25406 16.3873 6.30561 16.528 5.11528 15.1353H5.11185ZM6.18898 13.9724C5.67443 13.2074 5.53378 12.0068 5.77734 11.0085C6.11694 9.62265 6.98483 9.15269 7.70863 9.47515C8.12371 9.66039 8.49076 10.1029 8.68629 10.7821C8.77891 11.108 8.83036 11.4785 8.83379 11.8593C8.84065 12.5385 8.65541 13.3412 8.28836 13.9003C7.72578 14.7579 6.77214 14.8437 6.18898 13.9758V13.9724ZM14.9433 5.06027H22.9738C23.4231 5.06027 23.7902 5.42732 23.7902 5.87669V6.17171L17.4783 10.4288C17.396 10.4837 17.1936 10.6415 17.0255 10.7478C16.7785 10.909 16.7614 10.8782 16.5007 10.7307C16.0993 10.5077 15.4064 10.0343 14.9398 9.71184V5.06027H14.9433ZM23.7936 8.06184V16.6515C23.7936 17.3375 23.231 17.9036 22.5415 17.9036H14.9433V11.5505C15.3995 11.8524 16.0067 12.2503 16.3806 12.4802C16.6825 12.6654 16.7374 12.7511 17.0735 12.5556C17.2279 12.4664 17.3788 12.3498 17.4817 12.2812L23.7936 8.06527V8.06184Z" fill="#0072C6"/>
</g>
<defs>
<clipPath id="clip0_5604_2953">
<rect width="23.5872" height="24" fill="white" transform="translate(0.206421)"/>
</clipPath>
</defs>
</svg>
