<svg width="64" height="50" viewBox="0 0 64 50" fill="none" xmlns="http://www.w3.org/2000/svg">
<rect x="0.32921" y="10.4952" width="63.3416" height="39.176" rx="2.96289" fill="white" stroke="#222222" stroke-width="0.658421"/>
<rect x="0.32921" y="10.4952" width="63.3416" height="39.176" rx="2.96289" fill="white" stroke="#222222" stroke-width="0.658421"/>
<rect x="7.12311" y="21.2148" width="7.12313" height="22.9829" fill="#FEDF64"/>
<rect x="19.1434" y="30.9395" width="7.12313" height="13.2594" fill="#FEDF64"/>
<path d="M0.32921 13.4562C0.32921 11.8198 1.65574 10.4933 3.2921 10.4933H60.7079C62.3443 10.4933 63.6708 11.8198 63.6708 13.4562V16.7483H0.32921V13.4562Z" fill="white" stroke="#222222" stroke-width="0.658421"/>
<ellipse cx="4.50646" cy="13.8011" rx="1.26336" ry="1.25423" fill="#222222"/>
<ellipse cx="7.87542" cy="13.8011" rx="1.26336" ry="1.25423" fill="#222222"/>
<ellipse cx="11.2444" cy="13.8011" rx="1.26336" ry="1.25423" fill="#222222"/>
<path d="M41.1774 16.5828L34.28 4.3125L48.7214 7.69717L42.3231 10.0931L41.1774 16.5828Z" fill="#FEDF64"/>
<path d="M34.28 4.3125L41.1774 16.5828L42.3231 10.0931M34.28 4.3125L48.7214 7.69717L42.3231 10.0931M34.28 4.3125L42.3231 10.0931" stroke="black" stroke-width="0.15974"/>
<path d="M32.7218 37.7894C51.1975 40.4413 62.2077 23.7318 44.3137 12.1648M44.3137 12.1648L45.7617 15.9761M44.3137 12.1648L49.1082 13.0157" stroke="black" stroke-width="0.319479"/>
</svg>
