<svg width="12" height="12" viewBox="0 0 12 12" fill="none" xmlns="http://www.w3.org/2000/svg">
<path fill-rule="evenodd" clip-rule="evenodd" d="M11 6C11 8.76142 8.76142 11 6 11C3.23858 11 1 8.76142 1 6C1 3.23858 3.23858 1 6 1C8.76142 1 11 3.23858 11 6ZM12 6C12 9.31371 9.31371 12 6 12C2.68629 12 0 9.31371 0 6C0 2.68629 2.68629 0 6 0C9.31371 0 12 2.68629 12 6ZM5.99874 9.60031C7.98696 9.60031 9.59874 7.98854 9.59874 6.00031C9.59874 4.01209 7.98696 2.40032 5.99874 2.40032C4.01051 2.40032 2.39874 4.01209 2.39874 6.00031C2.39874 7.98854 4.01051 9.60031 5.99874 9.60031Z" fill="white"/>
</svg>
