<svg width="1074" height="719" viewBox="0 0 1074 719" fill="none" xmlns="http://www.w3.org/2000/svg">
<rect width="1074" height="719" fill="white"/>
<path d="M120 3V493" stroke="#D0D0FF" stroke-width="0.5"/>
<path d="M120 676L120 717" stroke="#D0D0FF" stroke-width="0.5"/>
<path d="M119.582 525L120.082 524.999V525L120.082 525.002C120.094 528.55 120.105 531.85 120.099 534.918C120.156 545.085 120.399 552.686 121.441 558.378C122.483 564.065 124.315 567.807 127.519 570.295C130.733 572.791 135.367 574.057 142.089 574.691C148.808 575.325 157.567 575.325 169.002 575.325V575.575V575.825C156.701 575.825 147.505 575.826 140.614 576.891C133.732 577.955 129.199 580.075 126.182 584.274C123.151 588.491 121.618 594.845 120.85 604.462C120.083 614.072 120.082 626.889 120.082 644H119.832H119.582C119.582 626.89 119.582 614.071 118.851 604.461C118.12 594.843 116.659 588.487 113.772 584.269C110.899 580.071 106.585 577.954 100.035 576.891C93.4739 575.826 84.717 575.825 73.0001 575.825V575.575V575.325C83.9311 575.325 92.3025 575.325 98.7219 574.691C105.144 574.057 109.565 572.792 112.626 570.299C115.679 567.813 117.419 564.07 118.395 558.381C119.373 552.688 119.58 545.085 119.599 534.919C119.582 531.85 119.582 528.549 119.582 525.001C119.582 525.001 119.582 525 119.582 525Z" fill="#D0D0FF" stroke="#D0D0FF" stroke-width="0.5"/>
<path d="M838.582 115L839.082 114.999V115L839.082 115.002C839.094 118.55 839.105 121.85 839.099 124.918C839.156 135.085 839.399 142.686 840.441 148.378C841.483 154.065 843.315 157.807 846.519 160.295C849.733 162.791 854.367 164.057 861.089 164.691C867.808 165.325 876.567 165.325 888.002 165.325V165.575V165.825C875.701 165.825 866.505 165.826 859.614 166.891C852.732 167.955 848.199 170.075 845.182 174.274C842.151 178.491 840.618 184.845 839.85 194.462C839.083 204.072 839.082 216.889 839.082 234H838.832H838.582C838.582 216.89 838.582 204.071 837.851 194.461C837.12 184.843 835.659 178.487 832.772 174.269C829.899 170.071 825.585 167.954 819.035 166.891C812.474 165.826 803.717 165.825 792 165.825V165.575V165.325C802.931 165.325 811.303 165.325 817.722 164.691C824.144 164.057 828.565 162.792 831.626 160.299C834.679 157.813 836.419 154.07 837.395 148.381C838.373 142.688 838.58 135.085 838.599 124.919C838.582 121.85 838.582 118.549 838.582 115.001C838.582 115.001 838.582 115 838.582 115Z" fill="#D0D0FF" stroke="#D0D0FF" stroke-width="0.5"/>
<path d="M240 3V83" stroke="#D0D0FF" stroke-width="0.5"/>
<path d="M240 174L240 718" stroke="#D0D0FF" stroke-width="0.5"/>
<path d="M360 3V718" stroke="#D0D0FF" stroke-width="0.5"/>
<path d="M480 3V716" stroke="#D0D0FF" stroke-width="0.5"/>
<path d="M600 3V716" stroke="#D0D0FF" stroke-width="0.5"/>
<path d="M720 2V718" stroke="#D0D0FF" stroke-width="0.5"/>
<path d="M960 441.25C958.187 441.25 956.625 439.668 955.53 437.297C954.426 434.905 953.75 431.618 953.75 428C953.75 424.382 954.426 421.095 955.53 418.703C956.625 416.332 958.187 414.75 960 414.75C961.813 414.75 963.375 416.332 964.47 418.703C965.574 421.095 966.25 424.382 966.25 428C966.25 431.618 965.574 434.905 964.47 437.297C963.375 439.668 961.813 441.25 960 441.25Z" fill="white" stroke="#7567FF" stroke-width="0.5"/>
<path d="M240 142.126C239.091 142.126 238.243 141.712 237.493 141.001C236.744 140.292 236.081 139.277 235.529 138.042C234.426 135.571 233.75 132.175 233.75 128.438C233.75 124.7 234.426 121.305 235.529 118.834C236.081 117.599 236.744 116.584 237.493 115.875C238.243 115.164 239.091 114.75 240 114.75C240.909 114.75 241.757 115.164 242.507 115.875C243.256 116.584 243.919 117.599 244.471 118.834C245.574 121.305 246.25 124.7 246.25 128.438C246.25 132.175 245.574 135.571 244.471 138.042C243.919 139.277 243.256 140.292 242.507 141.001C241.757 141.712 240.909 142.126 240 142.126Z" fill="white" stroke="#7567FF" stroke-width="0.5"/>
<path d="M840 2V83" stroke="#D0D0FF" stroke-width="0.5"/>
<path d="M840 266V716" stroke="#D0D0FF" stroke-width="0.5"/>
<path d="M960 3V383" stroke="#D0D0FF" stroke-width="0.5"/>
<path d="M960 471L960 719" stroke="#D0D0FF" stroke-width="0.5"/>
</svg>
