<svg width="64" height="64" viewBox="0 0 64 64" fill="none" xmlns="http://www.w3.org/2000/svg">
<rect x="1" y="1" width="62" height="62" rx="31" fill="#7567FF" stroke="#16023E" stroke-width="2"/>
<path d="M35.2959 36.7137L36.7422 35.29H31.6436C30.3431 35.29 29.0948 35.8014 28.168 36.7137H35.2959Z" fill="white"/>
<path d="M19.8375 34.8828L35.3695 19.5937C37.7455 17.2549 41.5977 17.2549 43.9737 19.5937C46.3497 21.9325 46.3497 25.7245 43.9737 28.0634L39.2805 32.6832L34.0708 32.6832C31.8777 32.6832 29.7744 33.5407 28.2237 35.0672L25.7564 37.4959L19.8375 43.3223C17.47 40.9918 17.47 37.2133 19.8375 34.8828Z" fill="white"/>
<path d="M21.748 43.3624L25.4963 39.6728C26.1377 39.0414 27.0017 38.6875 27.9018 38.6875H33.2237L30.9769 40.8991C29.3733 42.4777 27.2133 43.3624 24.9631 43.3624L21.748 43.3624Z" fill="white"/>
<path d="M15.3594 47.6975L19.8495 43.2776H21.8355L17.3454 47.6975H15.3594Z" fill="white"/>
</svg>
