<svg width="24" height="24" viewBox="0 0 24 24" fill="none" xmlns="http://www.w3.org/2000/svg">
<g id="link_FILL0_wght300_GRAD0_opsz24 1">
<path id="Vector" d="M10.8077 16.5378H7.03845C5.78282 16.5378 4.7125 16.0953 3.8275 15.2105C2.9425 14.3256 2.5 13.2554 2.5 11.9999C2.5 10.7444 2.9425 9.67406 3.8275 8.78881C4.7125 7.90356 5.78282 7.46094 7.03845 7.46094H10.8077V8.96089H7.03845C6.1987 8.96089 5.48235 9.25736 4.8894 9.85031C4.29645 10.4433 3.99998 11.1596 3.99998 11.9994C3.99998 12.8391 4.29645 13.5555 4.8894 14.1484C5.48235 14.7414 6.1987 15.0378 7.03845 15.0378H10.8077V16.5378ZM8.25 12.7493V11.2494H15.75V12.7493H8.25ZM13.1923 16.5378V15.0378H16.9615C17.8013 15.0378 18.5176 14.7414 19.1106 14.1484C19.7035 13.5555 20 12.8391 20 11.9994C20 11.1596 19.7035 10.4433 19.1106 9.85031C18.5176 9.25736 17.8013 8.96089 16.9615 8.96089H13.1923V7.46094H16.9615C18.2171 7.46094 19.2875 7.90338 20.1725 8.78826C21.0575 9.67315 21.5 10.7433 21.5 11.9988C21.5 13.2543 21.0575 14.3247 20.1725 15.2099C19.2875 16.0952 18.2171 16.5378 16.9615 16.5378H13.1923Z" fill="#212121"/>
</g>
</svg>
