<svg width="24" height="24" viewBox="0 0 24 24" fill="none" xmlns="http://www.w3.org/2000/svg">
<path d="M8.99998 20.75C7.96408 20.75 7.08011 20.3839 6.34807 19.6519C5.61602 18.9198 5.25 18.0359 5.25 17V8.65188C4.66667 8.43521 4.1875 8.08874 3.8125 7.61248C3.4375 7.13619 3.25 6.59978 3.25 6.00325C3.25 5.23845 3.51725 4.58838 4.05175 4.05303C4.58625 3.51768 5.23528 3.25 5.99885 3.25C6.76242 3.25 7.41183 3.51768 7.94708 4.05303C8.48233 4.58838 8.74995 5.23845 8.74995 6.00325C8.74995 6.59978 8.56245 7.13619 8.18745 7.61248C7.81245 8.08874 7.33328 8.43521 6.74995 8.65188V17C6.74995 17.6187 6.97045 18.1484 7.41145 18.5891C7.85245 19.0297 8.38258 19.25 9.00185 19.25C9.62112 19.25 10.1506 19.0297 10.5904 18.5891C11.0301 18.1484 11.25 17.6187 11.25 17V6.99998C11.25 5.96408 11.616 5.08011 12.3481 4.34808C13.0801 3.61603 13.9641 3.25 15 3.25C16.0359 3.25 16.9198 3.61603 17.6519 4.34808C18.3839 5.08011 18.75 5.96408 18.75 6.99998V15.3481C19.3333 15.5647 19.8125 15.9112 20.1875 16.3875C20.5625 16.8638 20.75 17.4002 20.75 17.9967C20.75 18.7615 20.4827 19.4116 19.9482 19.9469C19.4137 20.4823 18.7647 20.75 18.0011 20.75C17.2375 20.75 16.5881 20.4823 16.0529 19.9469C15.5176 19.4116 15.25 18.7615 15.25 17.9967C15.25 17.4002 15.4375 16.8596 15.8125 16.375C16.1875 15.8904 16.6667 15.5481 17.25 15.3481V6.99998C17.25 6.38123 17.0295 5.85153 16.5885 5.4109C16.1475 4.97027 15.6174 4.74995 14.9981 4.74995C14.3788 4.74995 13.8493 4.97027 13.4096 5.4109C12.9698 5.85153 12.75 6.38123 12.75 6.99998V17C12.75 18.0359 12.3839 18.9198 11.6519 19.6519C10.9198 20.3839 10.0359 20.75 8.99998 20.75Z" fill="#16023E"/>
</svg>
