<svg width="25" height="24" viewBox="0 0 25 24" fill="none" xmlns="http://www.w3.org/2000/svg">
<g id="smart_button_black_24dp 1" clip-path="url(#clip0_6273_8557)">
<g id="Group">
<path id="Vector" d="M22.5 9V15C22.5 16.1 21.6 17 20.5 17H19.5V15H20.5V9H4.5V15H10.5V17H4.5C3.4 17 2.5 16.1 2.5 15V9C2.5 7.9 3.4 7 4.5 7H20.5C21.6 7 22.5 7.9 22.5 9ZM15 19L16.09 16.59L18.5 15.5L16.09 14.41L15 12L13.91 14.41L11.5 15.5L13.91 16.59L15 19ZM17.5 14L18.12 12.62L19.5 12L18.12 11.38L17.5 10L16.88 11.38L15.5 12L16.88 12.62L17.5 14ZM15 19L16.09 16.59L18.5 15.5L16.09 14.41L15 12L13.91 14.41L11.5 15.5L13.91 16.59L15 19ZM17.5 14L18.12 12.62L19.5 12L18.12 11.38L17.5 10L16.88 11.38L15.5 12L16.88 12.62L17.5 14Z" fill="#7567FF"/>
</g>
</g>
<defs>
<clipPath id="clip0_6273_8557">
<rect width="24" height="24" fill="white" transform="translate(0.5)"/>
</clipPath>
</defs>
</svg>
