<svg width="24" height="24" viewBox="0 0 24 24" fill="none" xmlns="http://www.w3.org/2000/svg">
<g id="visibility_off_FILL1_wght300_GRAD0_opsz24 1">
<path id="Vector" d="M19.7616 21.8681L15.7155 17.8527C15.2027 18.0425 14.6344 18.1976 14.0107 18.3181C13.3869 18.4387 12.7167 18.4989 12.0001 18.4989C9.65009 18.4989 7.53664 17.8528 5.65972 16.5605C3.78281 15.2682 2.40909 13.581 1.53857 11.4989C1.90781 10.6156 2.38473 9.79157 2.96935 9.02682C3.55397 8.26209 4.19756 7.59895 4.90012 7.03742L2.13087 4.23742L3.18472 3.18359L20.8154 20.8143L19.7616 21.8681ZM12.0001 15.5758C12.2091 15.5758 12.4232 15.5579 12.6424 15.522C12.8616 15.4861 13.0565 15.4335 13.227 15.3643L8.13472 10.272C8.06549 10.4553 8.01292 10.655 7.97702 10.871C7.94112 11.0871 7.92317 11.2964 7.92317 11.4989C7.92317 12.6335 8.31901 13.5967 9.11067 14.3883C9.90234 15.18 10.8655 15.5758 12.0001 15.5758ZM18.9539 16.0835L15.8174 12.972C15.8956 12.7592 15.9584 12.531 16.0058 12.2874C16.0533 12.0438 16.077 11.781 16.077 11.4989C16.077 10.3643 15.6811 9.40121 14.8895 8.60954C14.0978 7.81788 13.1347 7.42204 12.0001 7.42204C11.718 7.42204 11.4584 7.44737 11.2212 7.49802C10.9841 7.54865 10.7559 7.62461 10.5366 7.72589L8.03472 5.23359C8.66677 4.98231 9.31228 4.79705 9.97125 4.67782C10.6302 4.55859 11.3065 4.49897 12.0001 4.49897C14.3437 4.49897 16.4571 5.14512 18.3404 6.43742C20.2238 7.72974 21.5975 9.41691 22.4616 11.4989C22.0911 12.3925 21.6125 13.2265 21.026 14.0008C20.4395 14.7752 19.7488 15.4694 18.9539 16.0835ZM14.6847 11.8489L11.6751 8.84894C12.1161 8.76561 12.5324 8.7983 12.9241 8.94702C13.3158 9.09574 13.6533 9.31689 13.9366 9.61047C14.2263 9.90407 14.4385 10.2483 14.5732 10.6432C14.7078 11.038 14.745 11.44 14.6847 11.8489Z" fill="#747474"/>
</g>
</svg>
