<svg width="24" height="24" viewBox="0 0 24 24" fill="none" xmlns="http://www.w3.org/2000/svg">
<g id="link_off_FILL1_wght300_GRAD0_opsz24 1">
<path id="Vector" d="M18.8845 16.1046L17.7499 14.9393C18.423 14.7559 18.9663 14.3953 19.3797 13.8575C19.7932 13.3197 19.9999 12.7008 19.9999 12.0008C19.9999 11.161 19.705 10.4447 19.1153 9.85173C18.5256 9.25878 17.814 8.96231 16.9807 8.96231H13.173V7.46236H16.9807C18.2294 7.46236 19.2948 7.90498 20.1768 8.79023C21.0589 9.67548 21.4999 10.7457 21.4999 12.0008C21.4999 12.8867 21.2621 13.696 20.7864 14.4287C20.3108 15.1613 19.6768 15.72 18.8845 16.1046ZM15.5807 12.7508L14.0807 11.2508H15.7307V12.7508H15.5807ZM20.1461 22.2546L1.74609 3.85461L2.79992 2.80078L21.1999 21.2008L20.1461 22.2546ZM10.8268 16.5392H7.03839C5.78326 16.5392 4.71307 16.0966 3.82782 15.2113C2.94257 14.3261 2.49994 13.2559 2.49994 12.0008C2.49994 10.8892 2.85796 9.91393 3.57399 9.07483C4.29003 8.23573 5.18843 7.72901 6.26919 7.55466H6.49997L7.90764 8.96231H7.03839C6.19864 8.96231 5.48229 9.25878 4.88934 9.85173C4.29639 10.4447 3.99992 11.161 3.99992 12.0008C3.99992 12.8405 4.29639 13.5569 4.88934 14.1498C5.48229 14.7428 6.19864 15.0393 7.03839 15.0393H10.8268V16.5392ZM8.26917 12.7508V11.2508H10.2115L11.6865 12.7508H8.26917Z" fill="black"/>
</g>
</svg>
