<svg xmlns="http://www.w3.org/2000/svg" width="24" height="24" viewBox="0 0 24 24" fill="none">
  <path
    d="M13.9423 9.74582V8.43044C14.4859 8.17789 15.0548 7.98848 15.649 7.86219C16.2433 7.73591 16.8603 7.67277 17.5 7.67277C17.9013 7.67277 18.291 7.70129 18.6692 7.75834C19.0474 7.81539 19.4269 7.89071 19.8077 7.98429V9.23812C19.4333 9.10735 19.0612 9.01248 18.6914 8.95349C18.3215 8.89453 17.9244 8.86504 17.5 8.86504C16.8603 8.86504 16.2407 8.941 15.6414 9.09292C15.042 9.24485 14.4756 9.46249 13.9423 9.74582ZM13.9423 15.2266V13.892C14.4731 13.6394 15.0404 13.45 15.6442 13.3237C16.2481 13.1974 16.8667 13.1343 17.5 13.1343C17.9013 13.1343 18.291 13.1628 18.6692 13.2199C19.0474 13.2769 19.4269 13.3522 19.8077 13.4458V14.6996C19.4333 14.5689 19.0612 14.474 18.6914 14.415C18.3215 14.3561 17.9244 14.3266 17.5 14.3266C16.8603 14.3266 16.2407 14.4032 15.6414 14.5564C15.042 14.7096 14.4756 14.933 13.9423 15.2266ZM13.9423 12.4958V11.1612C14.4859 10.9087 15.0548 10.7192 15.649 10.5929C16.2433 10.4667 16.8603 10.4035 17.5 10.4035C17.9013 10.4035 18.291 10.432 18.6692 10.4891C19.0474 10.5461 19.4269 10.6215 19.8077 10.7151V11.9689C19.4333 11.8381 19.0612 11.7432 18.6914 11.6843C18.3215 11.6253 17.9244 11.5958 17.5 11.5958C16.8603 11.5958 16.2407 11.675 15.6414 11.8333C15.042 11.9917 14.4756 12.2125 13.9423 12.4958ZM6.50001 16.0189C7.32823 16.0189 8.134 16.1128 8.91734 16.3006C9.70067 16.4885 10.4782 16.783 11.25 17.1843V7.35352C10.5475 6.89584 9.78721 6.55257 8.96926 6.32372C8.15131 6.09487 7.32823 5.98044 6.50001 5.98044C5.90001 5.98044 5.33944 6.02755 4.81829 6.12177C4.29714 6.216 3.76156 6.37017 3.21156 6.58427C3.13463 6.60992 3.08014 6.64679 3.04809 6.69487C3.01604 6.74295 3.00001 6.79584 3.00001 6.85352V16.3112C3.00001 16.4009 3.03206 16.4667 3.09616 16.5083C3.16028 16.55 3.2308 16.5548 3.30774 16.5227C3.78209 16.3612 4.28272 16.2369 4.80964 16.1497C5.33655 16.0625 5.90001 16.0189 6.50001 16.0189ZM12.75 17.1843C13.5218 16.783 14.2994 16.4885 15.0827 16.3006C15.866 16.1128 16.6718 16.0189 17.5 16.0189C18.1 16.0189 18.6635 16.0625 19.1904 16.1497C19.7173 16.2369 20.2179 16.3612 20.6923 16.5227C20.7692 16.5548 20.8397 16.55 20.9039 16.5083C20.968 16.4667 21 16.4009 21 16.3112V6.85352C21 6.79584 20.984 6.74455 20.9519 6.69967C20.9199 6.65479 20.8654 6.61632 20.7885 6.58427C20.2385 6.37017 19.7029 6.216 19.1817 6.12177C18.6606 6.02755 18.1 5.98044 17.5 5.98044C16.6718 5.98044 15.8487 6.09487 15.0308 6.32372C14.2128 6.55257 13.4526 6.89584 12.75 7.35352V17.1843ZM12 19.3842C11.1936 18.7894 10.3237 18.3298 9.39039 18.0054C8.45705 17.681 7.49359 17.5189 6.50001 17.5189C5.88976 17.5189 5.29041 17.5865 4.70196 17.7217C4.11349 17.857 3.54619 18.056 3.00004 18.3188C2.64364 18.4829 2.30454 18.457 1.98274 18.241C1.66095 18.0249 1.50006 17.7188 1.50006 17.3227V6.46507C1.50006 6.24969 1.5555 6.04744 1.66639 5.85834C1.77729 5.66924 1.93723 5.53303 2.14621 5.44969C2.82313 5.12021 3.52857 4.8763 4.26254 4.71797C4.9965 4.55964 5.74233 4.48047 6.50001 4.48047C7.47309 4.48047 8.42374 4.61348 9.35194 4.87952C10.2801 5.14553 11.1628 5.53816 12 6.05739C12.8372 5.53816 13.7199 5.14553 14.6481 4.87952C15.5763 4.61348 16.5269 4.48047 17.5 4.48047C18.2577 4.48047 19.0035 4.55964 19.7375 4.71797C20.4715 4.8763 21.1769 5.12021 21.8538 5.44969C22.0628 5.53303 22.2227 5.66924 22.3336 5.85834C22.4445 6.04744 22.5 6.24969 22.5 6.46507V17.3227C22.5 17.7188 22.3327 18.0217 21.9981 18.2313C21.6634 18.441 21.3115 18.4637 20.9423 18.2996C20.4025 18.0432 19.8432 17.849 19.2644 17.7169C18.6856 17.5849 18.0974 17.5189 17.5 17.5189C16.5064 17.5189 15.543 17.681 14.6096 18.0054C13.6763 18.3298 12.8064 18.7894 12 19.3842Z"
    fill="#747474" />
</svg>
