<svg width="24" height="24" viewBox="0 0 24 24" fill="none" xmlns="http://www.w3.org/2000/svg">
<g id="restart_alt_black_24dp (1) 1" clip-path="url(#clip0_6363_3087)">
<g id="Group">
<g id="Group_2">
<path id="Vector" d="M12 5V2L8 6L12 10V7C15.31 7 18 9.69 18 13C18 15.97 15.83 18.43 13 18.91V20.93C16.95 20.44 20 17.08 20 13C20 8.58 16.42 5 12 5Z" fill="#747474"/>
<path id="Vector_2" d="M6 12.9998C6 11.3498 6.67 9.84984 7.76 8.75984L6.34 7.33984C4.9 8.78984 4 10.7898 4 12.9998C4 17.0798 7.05 20.4398 11 20.9298V18.9098C8.17 18.4298 6 15.9698 6 12.9998Z" fill="#747474"/>
</g>
</g>
</g>
<defs>
<clipPath id="clip0_6363_3087">
<rect width="24" height="24" fill="white"/>
</clipPath>
</defs>
</svg>
