<svg width="25" height="24" viewBox="0 0 25 24" fill="none" xmlns="http://www.w3.org/2000/svg">
<path d="M15.75 15.8461H19.3461V12.25H18.1538V14.6538H15.75V15.8461ZM5.65383 9.74995H6.84613V7.34613H9.24995V6.15383H5.65383V9.74995ZM9 20.5V18.5H4.8077C4.30257 18.5 3.875 18.325 3.525 17.975C3.175 17.625 3 17.1974 3 16.6923V5.3077C3 4.80257 3.175 4.375 3.525 4.025C3.875 3.675 4.30257 3.5 4.8077 3.5H20.1923C20.6974 3.5 21.125 3.675 21.475 4.025C21.825 4.375 22 4.80257 22 5.3077V16.6923C22 17.1974 21.825 17.625 21.475 17.975C21.125 18.325 20.6974 18.5 20.1923 18.5H16V20.5H9ZM4.8077 17H20.1923C20.2692 17 20.3397 16.9679 20.4038 16.9038C20.4679 16.8397 20.5 16.7692 20.5 16.6923V5.3077C20.5 5.23077 20.4679 5.16024 20.4038 5.09613C20.3397 5.03203 20.2692 4.99998 20.1923 4.99998H4.8077C4.73077 4.99998 4.66024 5.03203 4.59613 5.09613C4.53202 5.16024 4.49998 5.23077 4.49998 5.3077V16.6923C4.49998 16.7692 4.53202 16.8397 4.59613 16.9038C4.66024 16.9679 4.73077 17 4.8077 17Z" fill="white"/>
</svg>
