<svg width="21" height="20" viewBox="0 0 21 20" fill="none" xmlns="http://www.w3.org/2000/svg">
<g clip-path="url(#clip0_7352_25913)">
<path d="M15.5 13.4013C14.8667 13.4013 14.3 13.6513 13.8667 14.043L7.925 10.5846C7.96667 10.393 8 10.2013 8 10.0013C8 9.8013 7.96667 9.60964 7.925 9.41797L13.8 5.99297C14.25 6.40964 14.8417 6.66797 15.5 6.66797C16.8833 6.66797 18 5.5513 18 4.16797C18 2.78464 16.8833 1.66797 15.5 1.66797C14.1167 1.66797 13 2.78464 13 4.16797C13 4.36797 13.0333 4.55964 13.075 4.7513L7.2 8.1763C6.75 7.75964 6.15833 7.5013 5.5 7.5013C4.11667 7.5013 3 8.61797 3 10.0013C3 11.3846 4.11667 12.5013 5.5 12.5013C6.15833 12.5013 6.75 12.243 7.2 11.8263L13.1333 15.293C13.0917 15.468 13.0667 15.6513 13.0667 15.8346C13.0667 17.1763 14.1583 18.268 15.5 18.268C16.8417 18.268 17.9333 17.1763 17.9333 15.8346C17.9333 14.493 16.8417 13.4013 15.5 13.4013Z" fill="white"/>
</g>
<defs>
<clipPath id="clip0_7352_25913">
<rect width="20" height="20" fill="white" transform="translate(0.5)"/>
</clipPath>
</defs>
</svg>
