<svg width="24" height="24" viewBox="0 0 24 24" fill="none" xmlns="http://www.w3.org/2000/svg">
<g id="resize_FILL0_wght300_GRAD0_opsz24 1">
<path id="Vector" d="M3.5 13V11H4.99997V13H3.5ZM3.5 8.99998V6.99998H4.99997V8.99998H3.5ZM3.5 4.99998V3.5H4.99997V4.99998H3.5ZM6.99998 4.99998V3.5H8.99998V4.99998H6.99998ZM11 20.5V19H13V20.5H11ZM11 4.99998V3.5H13V4.99998H11ZM15 20.5V19H17V20.5H15ZM19 20.5V19H20.5V20.5H19ZM19 17.0961V15.0961H20.5V17.0961H19ZM19 13V11H20.5V13H19ZM19 8.90383V4.99998H15V3.5H20.5V8.90383H19ZM3.5 20.5V15H4.99997V19H8.99998V20.5H3.5Z" fill="#212121"/>
</g>
</svg>
