<svg width="24" height="24" viewBox="0 0 24 24" fill="none" xmlns="http://www.w3.org/2000/svg">
<g id="palette_FILL0_wght300_GRAD0_opsz24 1">
<path id="Vector" d="M11.9808 21.5C10.6846 21.5 9.46024 21.2503 8.30768 20.7509C7.15513 20.2516 6.14872 19.5718 5.28845 18.7115C4.4282 17.8512 3.7484 16.8432 3.24905 15.6875C2.74968 14.5317 2.5 13.3025 2.5 12C2.5 10.6807 2.75642 9.44325 3.26925 8.2875C3.78207 7.13173 4.47853 6.12628 5.35865 5.27115C6.23878 4.41603 7.26827 3.7404 8.4471 3.24425C9.62595 2.74808 10.8833 2.5 12.2192 2.5C13.4692 2.5 14.6538 2.71314 15.773 3.13943C16.8923 3.56571 17.8753 4.15578 18.7221 4.90963C19.5689 5.66346 20.2435 6.55928 20.7461 7.5971C21.2487 8.63492 21.5 9.76023 21.5 10.9731C21.5 12.7038 20.9855 14.0576 19.9567 15.0346C18.9278 16.0115 17.6089 16.5 16 16.5H14.1885C13.9038 16.5 13.6762 16.5929 13.5057 16.7788C13.3352 16.9647 13.25 17.1846 13.25 17.4385C13.25 17.7474 13.375 18.0686 13.625 18.4019C13.875 18.7352 14 19.1179 14 19.55C14 20.2102 13.8173 20.7003 13.4519 21.0202C13.0865 21.34 12.5961 21.5 11.9808 21.5ZM6.49998 12.75C6.85638 12.75 7.15381 12.6307 7.39227 12.3923C7.63072 12.1538 7.74995 11.8564 7.74995 11.5C7.74995 11.1436 7.63072 10.8461 7.39227 10.6077C7.15381 10.3692 6.85638 10.25 6.49998 10.25C6.14358 10.25 5.84614 10.3692 5.60768 10.6077C5.36923 10.8461 5.25 11.1436 5.25 11.5C5.25 11.8564 5.36923 12.1538 5.60768 12.3923C5.84614 12.6307 6.14358 12.75 6.49998 12.75ZM9.49998 8.74995C9.85638 8.74995 10.1538 8.63073 10.3923 8.39228C10.6307 8.15381 10.75 7.85638 10.75 7.49998C10.75 7.14358 10.6307 6.84614 10.3923 6.60768C10.1538 6.36923 9.85638 6.25 9.49998 6.25C9.14358 6.25 8.84614 6.36923 8.60768 6.60768C8.36923 6.84614 8.25 7.14358 8.25 7.49998C8.25 7.85638 8.36923 8.15381 8.60768 8.39228C8.84614 8.63073 9.14358 8.74995 9.49998 8.74995ZM14.5 8.74995C14.8564 8.74995 15.1538 8.63073 15.3923 8.39228C15.6307 8.15381 15.75 7.85638 15.75 7.49998C15.75 7.14358 15.6307 6.84614 15.3923 6.60768C15.1538 6.36923 14.8564 6.25 14.5 6.25C14.1436 6.25 13.8461 6.36923 13.6077 6.60768C13.3692 6.84614 13.25 7.14358 13.25 7.49998C13.25 7.85638 13.3692 8.15381 13.6077 8.39228C13.8461 8.63073 14.1436 8.74995 14.5 8.74995ZM17.5 12.75C17.8564 12.75 18.1538 12.6307 18.3923 12.3923C18.6307 12.1538 18.75 11.8564 18.75 11.5C18.75 11.1436 18.6307 10.8461 18.3923 10.6077C18.1538 10.3692 17.8564 10.25 17.5 10.25C17.1436 10.25 16.8461 10.3692 16.6077 10.6077C16.3692 10.8461 16.25 11.1436 16.25 11.5C16.25 11.8564 16.3692 12.1538 16.6077 12.3923C16.8461 12.6307 17.1436 12.75 17.5 12.75ZM11.9808 20C12.1436 20 12.2708 19.9599 12.3625 19.8798C12.4541 19.7997 12.5 19.6897 12.5 19.55C12.5 19.3166 12.375 19.0545 12.125 18.7635C11.875 18.4724 11.75 18.0166 11.75 17.3961C11.75 16.6833 11.9916 16.1058 12.475 15.6635C12.9583 15.2211 13.55 15 14.25 15H16C17.1769 15 18.1378 14.6551 18.8827 13.9654C19.6275 13.2756 20 12.2782 20 10.9731C20 8.94997 19.2243 7.28202 17.6731 5.9692C16.1218 4.65638 14.3038 3.99998 12.2192 3.99998C9.9333 3.99998 7.99196 4.77498 6.39518 6.32498C4.79838 7.87498 3.99998 9.76664 3.99998 12C3.99998 14.2166 4.77914 16.1041 6.33748 17.6625C7.89581 19.2208 9.7769 20 11.9808 20Z" fill="#212121"/>
</g>
</svg>
