<svg width="58" height="57" viewBox="0 0 58 57" fill="none" xmlns="http://www.w3.org/2000/svg">
<rect x="1" y="0.5" width="56" height="56" rx="3.5" fill="#F7F7FF" stroke="#CBC6FF" stroke-dasharray="2 2"/>
<g filter="url(#filter0_f_7564_4267)">
<path fill-rule="evenodd" clip-rule="evenodd" d="M20.5 23.8672C18.2909 23.8672 16.5 25.658 16.5 27.8672V37.4348C16.5 39.6439 18.2909 41.4348 20.5 41.4348H31.3113L33.3919 44.1375L35.4724 41.4348H37.5C39.7091 41.4348 41.5 39.6439 41.5 37.4348V27.8672C41.5 25.658 39.7091 23.8672 37.5 23.8672H20.5Z" fill="#7567FF"/>
</g>
<path d="M10.5 17C10.5 14.7909 12.2909 13 14.5 13H43.5C45.7091 13 47.5 14.7909 47.5 17V35C47.5 37.2091 45.7091 39 43.5 39H14.5C12.2909 39 10.5 37.2091 10.5 35V17Z" fill="#7567FF"/>
<rect x="15.5" y="20" width="26" height="2" rx="1" fill="white"/>
<rect x="15.5" y="25" width="20" height="2" rx="1" fill="white"/>
<rect x="15.5" y="30" width="12" height="2" rx="1" fill="white"/>
<defs>
<filter id="filter0_f_7564_4267" x="4.5" y="11.8672" width="49" height="44.2695" filterUnits="userSpaceOnUse" color-interpolation-filters="sRGB">
<feFlood flood-opacity="0" result="BackgroundImageFix"/>
<feBlend mode="normal" in="SourceGraphic" in2="BackgroundImageFix" result="shape"/>
<feGaussianBlur stdDeviation="6" result="effect1_foregroundBlur_7564_4267"/>
</filter>
</defs>
</svg>
