<svg width="101" height="92" viewBox="0 0 101 92" fill="none" xmlns="http://www.w3.org/2000/svg">
<g clip-path="url(#clip0_7352_17705)">
<path d="M64.5677 73.1152L65.5287 75.2699C64.7475 75.1455 64.0212 75.8126 64.0048 76.6693C63.9885 77.526 64.6852 78.4173 65.4664 78.5391C65.3171 79.2042 64.6728 79.4975 64.1136 79.7663C63.5544 80.0351 62.9517 80.481 62.9933 81.1897C63.0267 81.7588 63.4973 82.2612 63.997 82.4632C64.4968 82.6652 65.0211 82.6341 65.5272 82.6002C64.7603 83.4025 64.6855 84.9105 65.359 85.9923C66.0326 87.0742 67.3777 87.6068 68.3848 87.1904C67.6732 88.0756 67.8278 89.6967 68.711 90.6103C69.6013 91.5312 70.8916 91.6204 72.0196 91.5234C74.892 91.2805 77.629 90.1958 79.8881 88.4051C80.7504 87.7199 81.5558 86.914 82.0478 85.8629C82.5397 84.8117 82.6846 83.4809 82.2264 82.2847C82.35 83.7831 83.8498 84.9667 85.1991 85.0329C86.5483 85.0991 87.7264 84.3391 88.7274 83.4725C90.0588 82.32 91.2914 80.7045 91.1086 78.7112C91.0182 77.7244 90.5872 76.7754 90.1645 75.8561L89.3449 74.0739C89.0141 73.3544 88.6757 72.6228 88.1777 72.019C87.6798 71.4152 86.9886 70.9478 86.2969 70.9523C86.455 70.2297 86.6139 69.4803 86.4814 68.7126C86.3488 67.945 85.8413 67.1501 85.1511 66.9703C84.2727 66.7415 83.5283 67.5521 82.645 67.4757C81.795 67.4022 81.0925 66.5491 80.2671 66.2111C79.9272 66.0641 79.5519 66.0194 79.187 66.0825C78.8222 66.1457 78.4837 66.3138 78.2129 66.5664C77.6897 67.0772 77.4715 67.9402 77.6593 68.7569C77.8238 69.4722 78.2616 70.1031 78.5272 70.793C78.7929 71.4829 78.8342 72.37 78.3239 72.7468C77.7081 73.2015 76.7709 72.5828 76.2898 71.8343C75.8088 71.0858 75.5326 70.1795 74.9242 69.55C74.2062 68.807 73.0823 68.6329 72.3431 69.1501C71.6038 69.6673 71.3211 70.8255 71.6938 71.8101C71.9985 72.6151 72.6966 73.4294 72.4545 74.1875C72.1986 74.9886 71.079 74.8872 70.4036 74.321C69.7283 73.7548 69.2799 72.9019 68.6127 72.323C67.9352 71.7351 67.0505 71.4774 66.2738 71.642C65.8798 71.7334 65.5152 71.9226 65.2135 72.1921C64.9119 72.4615 64.6831 72.8027 64.5481 73.1839" fill="#E6E6E6"/>
<path d="M80.1256 67.0602L78.1317 67.9865C77.832 68.1345 77.4921 68.1804 77.1639 68.117C76.8745 68.0486 76.6789 67.8716 76.6275 67.6313L76.1635 65.4644C76.0759 65.0557 76.4145 64.572 76.9684 64.3146L78.0695 63.8031C78.6235 63.5457 79.2115 63.5988 79.4674 63.9294L80.8242 65.6814C80.9747 65.8757 80.9838 66.1393 80.8495 66.4047C80.6862 66.6964 80.432 66.9266 80.1256 67.0602Z" fill="#3F3D56"/>
<path d="M18.301 27.0121C20.1755 21.8818 23.1006 17.1995 26.8892 13.265C30.1035 9.92818 35.1061 10.0668 35.1061 10.0668L35.1346 10.0314C36.3386 8.54666 37.9542 7.45055 39.7788 6.88058C41.6034 6.3106 43.5557 6.29213 45.3907 6.82748C45.8677 6.96435 46.2346 7.02502 46.409 6.96405C49.5901 5.8507 49.4407 3.33777 52.1853 1.31337C56.9909 -2.23123 72.9308 1.82904 75.1784 8.35154C77.0001 13.6379 85.1317 16.2001 88.1697 20.2437C88.6448 20.876 89.1108 21.5156 89.5679 22.1625C89.7823 22.4631 89.9942 22.7659 90.2037 23.071C92.3561 26.188 94.2871 29.4523 95.9823 32.8398C97.094 35.053 98.0602 37.3363 98.8747 39.6752C102.043 48.9372 100.959 55.8379 92.2235 54.133C91.1894 53.9307 90.1801 53.7497 89.1957 53.5899C87.7702 53.3573 86.3944 53.1661 85.0683 53.0164C83.2826 52.8133 81.5836 52.6803 79.9716 52.6172C79.4295 52.5954 78.8974 52.5808 78.3753 52.5734C70.6549 52.4663 64.9282 53.9194 60.5655 56.175C59.8259 56.5564 59.1251 56.9599 58.463 57.3854C57.4517 58.0319 56.4861 58.7472 55.573 59.5263C54.3094 60.6106 53.1442 61.8046 52.091 63.0942L52.0331 63.165C46.9303 69.4067 45.251 76.3165 41.7015 77.5331C26.5282 82.7347 16.9318 63.8787 15.9476 45.4334C15.8979 44.5039 15.8705 43.5771 15.8653 42.653C15.8622 42.2399 15.8642 41.8279 15.8714 41.417C15.8869 40.345 15.9342 39.28 16.0133 38.2278C16.0429 37.8255 16.0772 37.4254 16.1162 37.0273C16.1592 36.5981 16.2059 36.1715 16.26 35.7475C16.646 32.6396 17.3212 29.6826 18.301 27.0121Z" fill="#6C63FF"/>
<path d="M65.3306 37.1593C64.1188 37.7235 64.0988 40.2505 64.4788 41.0693L65.1674 42.5513L69.5566 40.512L68.868 39.03C68.4873 38.2115 66.5432 36.5971 65.3306 37.1593Z" fill="#3F3D56"/>
<path d="M53.5355 58.4368C53.4583 58.4368 53.3822 58.4182 53.3137 58.3825C53.2452 58.3468 53.1863 58.2951 53.142 58.2318C53.0978 58.1685 53.0694 58.0955 53.0594 58.0189C53.0494 57.9424 53.058 57.8645 53.0845 57.7919C53.106 57.7327 53.139 57.6782 53.1817 57.6318C53.2243 57.5854 53.2758 57.5479 53.3331 57.5215L76.0004 46.99C76.0575 46.9635 76.1193 46.9484 76.1823 46.9457C76.2452 46.9431 76.3081 46.9528 76.3673 46.9745C76.4265 46.9961 76.4808 47.0291 76.5272 47.0718C76.5736 47.1144 76.6112 47.1658 76.6377 47.2229C76.6912 47.3384 76.6967 47.4703 76.653 47.5898C76.6094 47.7093 76.5201 47.8066 76.4048 47.8603L53.7374 58.3918C53.6742 58.4214 53.6053 58.4367 53.5355 58.4368Z" fill="#3F3D56"/>
<path d="M71.2664 41.4584L64.787 44.4688L74.9509 66.3448L81.4302 63.3344L71.2664 41.4584Z" fill="#E6E6E6"/>
<path d="M46.9434 13.9211C45.7316 14.4852 45.7117 17.0122 46.0916 17.831L46.7802 19.313L51.1695 17.2737L50.4809 15.7917C50.1002 14.9732 48.1561 13.3588 46.9434 13.9211Z" fill="#3F3D56"/>
<path d="M74.0943 69.5758L72.1005 70.5022C71.8008 70.6502 71.4609 70.696 71.1327 70.6326C70.8432 70.5642 70.6476 70.3872 70.5962 70.1469L70.1323 67.98C70.0447 67.5713 70.3832 67.0877 70.9372 66.8303L72.0383 66.3187C72.5923 66.0613 73.1802 66.1145 73.4361 66.445L74.793 68.197C74.9434 68.3913 74.9526 68.6549 74.8182 68.9203C74.655 69.212 74.4007 69.4422 74.0943 69.5758Z" fill="#3F3D56"/>
<path d="M67.9643 72.6188L65.9704 73.5451C65.6707 73.6931 65.3308 73.739 65.0026 73.6756C64.7131 73.6072 64.5176 73.4302 64.4661 73.1899L64.0022 71.023C63.9146 70.6143 64.2532 70.1306 64.8071 69.8732L65.9082 69.3616C66.4622 69.1043 67.0502 69.1574 67.3061 69.488L68.6629 71.24C68.8134 71.4343 68.8225 71.6979 68.6881 71.9633C68.5249 72.2549 68.2707 72.4852 67.9643 72.6188Z" fill="#3F3D56"/>
<path d="M54.6082 21.9388L48.1288 24.9492L68.6739 69.1691L75.1533 66.1587L54.6082 21.9388Z" fill="#E6E6E6"/>
<path d="M61.3311 44.7343L60.6041 43.1344L61.0226 42.9414L61.7474 44.5361L72.2431 67.8076L71.825 68.0018" fill="#3F3D56"/>
<path d="M69.5312 43.4061L68.8042 41.8063L69.2227 41.6133L69.9476 43.208L80.4433 66.4795L80.0252 66.6737" fill="#3F3D56"/>
<path d="M57.6664 25.4781L48.8872 29.5571C48.3282 28.6875 46.6433 24.2314 47.0216 22.9093L46.7376 21.6485L52.7995 18.832L53.6109 19.8302C54.8153 20.1997 57.1601 24.3852 57.6664 25.4781Z" fill="#E6E6E6"/>
<path d="M53.0528 18.885L46.7973 21.7914C46.5664 21.8987 46.3205 21.8593 46.248 21.7033C46.2377 21.6808 46.2312 21.6567 46.229 21.6321L45.9052 18.1783C45.8913 18.0304 46.0179 17.8628 46.2112 17.773L50.3597 15.8455C50.553 15.7557 50.7627 15.7671 50.8668 15.8731L53.2975 18.3479C53.4219 18.4745 53.3544 18.6912 53.1467 18.8319C53.1169 18.8521 53.0855 18.8699 53.0528 18.885Z" fill="#E6E6E6"/>
<path d="M57.9592 45.9452C57.8915 45.9454 57.824 45.9374 57.7582 45.9215C57.6654 45.9022 57.5782 45.862 57.5034 45.8039C57.4285 45.7458 57.368 45.6713 57.3264 45.5862L53.5019 37.3547C53.3436 37.0139 53.5561 36.5781 53.9756 36.3832L59.5757 33.7813C59.9952 33.5863 60.4652 33.7052 60.6236 34.0459L64.448 42.2774C64.4862 42.3641 64.5041 42.4584 64.5002 42.5531C64.4964 42.6478 64.4709 42.7403 64.4258 42.8236C64.3276 43.0122 64.1685 43.1621 63.9743 43.2489L58.3743 45.8507C58.2444 45.912 58.1028 45.9442 57.9592 45.9452Z" fill="#3F3D56"/>
<path d="M58.725 47.1927L52.2457 50.2031L62.4096 72.0792L68.8889 69.0688L58.725 47.1927Z" fill="#E6E6E6"/>
<path d="M50.7426 19.2454L48.8425 20.1282C48.4758 20.2985 47.9811 20.0147 47.7399 19.4955C47.4987 18.9763 47.6007 18.4151 47.9674 18.2448L49.8675 17.362C50.2342 17.1916 50.7289 17.4755 50.9701 17.9947C51.2113 18.5139 51.1092 19.075 50.7426 19.2454Z" fill="#3F3D56"/>
<path d="M52.9156 42.8351C51.7039 43.3993 51.6839 45.9263 52.0639 46.745L52.7524 48.2271L57.1417 46.1878L56.4531 44.7057C56.0724 43.8873 54.1283 42.2729 52.9156 42.8351Z" fill="#3F3D56"/>
<path d="M32.7867 37.7893C32.3587 38.0744 31.9207 37.3958 32.3569 37.1233C32.7848 36.8382 33.2228 37.5168 32.7867 37.7893Z" fill="#E6E6E6"/>
<path d="M77.3336 28.0393C76.9057 28.3244 76.4676 27.6458 76.9038 27.3733C77.3318 27.0882 77.7698 27.7668 77.3336 28.0393Z" fill="#E6E6E6"/>
<path d="M46.9708 35.7971C46.5428 36.0822 46.1048 35.4036 46.541 35.1311C46.9689 34.846 47.4069 35.5246 46.9708 35.7971Z" fill="#E6E6E6"/>
<path d="M32.7867 62.3909C32.3587 62.676 31.9207 61.9973 32.3569 61.7248C32.7848 61.4397 33.2228 62.1184 32.7867 62.3909Z" fill="#E6E6E6"/>
<path d="M54.6169 6.87523C54.1889 7.16037 53.7509 6.4817 54.1871 6.20922C54.615 5.92409 55.053 6.60276 54.6169 6.87523Z" fill="#E6E6E6"/>
<path d="M33.5624 19.9494C33.1344 20.2346 32.6964 19.5559 33.1326 19.2834C33.5605 18.9983 33.9985 19.677 33.5624 19.9494Z" fill="#E6E6E6"/>
<path d="M63.8452 16.2L63.573 16.1403L63.6326 15.8679L63.4511 15.8281L63.3913 16.1005L63.1191 16.0409L63.0793 16.2224L63.3516 16.2821L63.2919 16.5544L63.4734 16.5942L63.5332 16.3218L63.8054 16.3815L63.8452 16.2Z" fill="#E6E6E6"/>
<path d="M19.5092 38.8913L19.2369 38.8316L19.2965 38.5593L19.115 38.5195L19.0553 38.7918L18.7829 38.7322L18.7431 38.9137L19.0155 38.9734L18.9559 39.2458L19.1374 39.2855L19.1971 39.0132L19.4694 39.0728L19.5092 38.8913Z" fill="#E6E6E6"/>
<path d="M75.3466 50.4687C75.12 50.5736 74.861 50.5844 74.6265 50.4987C74.3919 50.413 74.201 50.2377 74.0955 50.0114L72.9749 47.5994C72.87 47.3729 72.8593 47.1141 72.9452 46.8797C73.031 46.6453 73.2064 46.4546 73.4327 46.3494C73.6591 46.2442 73.918 46.2332 74.1524 46.3188C74.3869 46.4043 74.5779 46.5795 74.6833 46.8057L75.8039 49.2176C75.9089 49.4442 75.9197 49.7032 75.834 49.9377C75.7482 50.1722 75.5729 50.3632 75.3466 50.4687Z" fill="#3F3D56"/>
<path d="M56.2867 59.332C56.0601 59.4369 55.8011 59.4477 55.5665 59.362C55.332 59.2763 55.141 59.101 55.0356 58.8746L53.915 56.4627C53.8101 56.2362 53.7994 55.9774 53.8852 55.743C53.9711 55.5086 54.1464 55.3179 54.3728 55.2127C54.5992 55.1075 54.858 55.0965 55.0925 55.1821C55.327 55.2676 55.5179 55.4427 55.6234 55.669L56.744 58.0809C56.849 58.3075 56.8598 58.5664 56.774 58.801C56.6883 59.0355 56.513 59.2265 56.2867 59.332Z" fill="#3F3D56"/>
<path d="M73.6203 45.1968L66.1065 48.6878C65.6281 47.9435 64.186 44.1297 64.5098 42.9982L64.6688 41.7323L69.1552 39.5312L70.1493 40.3629C71.55 39.8894 73.6089 43.3602 73.6203 45.1968Z" fill="#E6E6E6"/>
<path d="M70.1319 44.9577L68.2318 45.8405C67.8651 46.0109 67.3072 45.5909 66.9883 44.9045C66.6694 44.218 66.7082 43.5208 67.0749 43.3504L68.975 42.4676C69.3416 42.2972 69.8996 42.7172 70.2185 43.4037C70.5374 44.0901 70.4986 44.7874 70.1319 44.9577Z" fill="#3F3D56"/>
<path d="M54.0174 49.4999L53.2903 47.9001L53.7089 47.707L54.4337 49.3017L64.9294 72.5732L64.5113 72.7675" fill="#3F3D56"/>
<path d="M61.2054 50.8725L53.6916 54.3635C52.5832 53.7912 50.889 50.0461 52.095 48.674L52.2539 47.4081L56.7403 45.207L57.7345 46.0387C58.7653 46.355 60.7721 49.9372 61.2054 50.8725Z" fill="#E6E6E6"/>
<path d="M57.5624 50.2984L55.6623 51.1812C55.2956 51.3516 54.7724 51.0063 54.4961 50.4116C54.2198 49.8169 54.2933 49.1943 54.66 49.024L56.5601 48.1411C56.9267 47.9708 57.45 48.3161 57.7263 48.9108C58.0026 49.5055 57.929 50.1281 57.5624 50.2984Z" fill="#3F3D56"/>
<path d="M19.4814 34.1127C25.7851 34.1127 30.8952 29.0026 30.8952 22.6989C30.8952 16.3953 25.7851 11.2852 19.4814 11.2852C13.1777 11.2852 8.06763 16.3953 8.06763 22.6989C8.06763 29.0026 13.1777 34.1127 19.4814 34.1127Z" fill="#FF6584"/>
<path opacity="0.3" d="M66.2794 34.5858L73.2155 14.3281L65.5992 34.3433C65.5615 34.3908 65.5357 34.4466 65.5239 34.5061C65.5122 34.5656 65.5147 34.627 65.5314 34.6853C65.5481 34.7436 65.5785 34.797 65.6199 34.8412C65.6614 34.8854 65.7129 34.9191 65.77 34.9395C65.8271 34.9598 65.8882 34.9663 65.9483 34.9583C66.0084 34.9503 66.0657 34.9281 66.1155 34.8935C66.1654 34.8589 66.2062 34.813 66.2347 34.7595C66.2632 34.706 66.2785 34.6464 66.2794 34.5858Z" fill="#F0F0F0"/>
<path d="M83.9601 22.513C82.6023 22.9643 81.097 23.4076 79.4443 23.8429C70.8956 26.0936 59.437 27.8493 47.1793 28.7866C34.9216 29.7238 23.3292 29.7306 14.5377 28.8059C10.2551 28.3553 6.86777 27.7074 4.46991 26.8798C1.93124 26.0038 0.597288 24.9481 0.50506 23.7423C0.325461 21.3931 4.96115 19.3254 8.88165 18.0046L8.98783 18.3196C3.60394 20.1335 0.709123 22.0503 0.836581 23.717C0.998845 25.8397 6.0054 27.574 14.5725 28.4752C23.3447 29.398 34.9156 29.3909 47.154 28.4551C59.3922 27.5193 70.8298 25.7671 79.3597 23.5214C87.6899 21.3283 92.3748 18.8529 92.2124 16.7301C92.0776 14.9677 88.6035 13.46 82.4301 12.4846L82.482 12.1562C86.9677 12.865 92.3546 14.2294 92.5439 16.7048C92.6361 17.9106 91.4782 19.1568 89.1022 20.4086C87.7478 21.1222 86.0269 21.8261 83.9601 22.513Z" fill="#3F3D56"/>
<path d="M87.314 42.7547C87.9689 42.7547 88.4999 42.2238 88.4999 41.5688C88.4999 40.9138 87.9689 40.3828 87.314 40.3828C86.659 40.3828 86.128 40.9138 86.128 41.5688C86.128 42.2238 86.659 42.7547 87.314 42.7547Z" fill="#FF6584"/>
<path d="M94.8493 74.8915C95.5043 74.8915 96.0353 74.3605 96.0353 73.7055C96.0353 73.0505 95.5043 72.5195 94.8493 72.5195C94.1943 72.5195 93.6633 73.0505 93.6633 73.7055C93.6633 74.3605 94.1943 74.8915 94.8493 74.8915Z" fill="#F2F2F2"/>
<path d="M54.4024 82.1128C55.6794 82.1128 56.7146 81.0775 56.7146 79.8005C56.7146 78.5235 55.6794 77.4883 54.4024 77.4883C53.1254 77.4883 52.0901 78.5235 52.0901 79.8005C52.0901 81.0775 53.1254 82.1128 54.4024 82.1128Z" fill="#F2F2F2"/>
<path d="M36.7831 51.5086C37.4381 51.5086 37.969 50.9777 37.969 50.3227C37.969 49.6677 37.4381 49.1367 36.7831 49.1367C36.1281 49.1367 35.5971 49.6677 35.5971 50.3227C35.5971 50.9777 36.1281 51.5086 36.7831 51.5086Z" fill="#3F3D56"/>
<path d="M76.6538 53.0547L81.7707 54.3792L84.9091 60.5436L79.6033 60.7517L76.6538 53.0547Z" fill="#E6E6E6"/>
<path d="M64.8432 44.168L67.6594 46.9857L74.8121 62.4503L73.4952 63.588L64.8432 44.168Z" fill="#CCCCCC"/>
<path d="M58.7198 46.7227L58.9408 50.7004L65.6919 66.3444L67.418 66.1221L58.7198 46.7227Z" fill="#CCCCCC"/>
<path d="M58.5355 62.7891L55.7797 67.2994L57.8112 73.9115L61.7687 70.3713L58.5355 62.7891Z" fill="#E6E6E6"/>
<path d="M82.8792 65.5621C81.4483 65.5621 79.8801 65.5081 78.1744 65.3999C69.3521 64.8397 57.9246 62.8919 45.9969 59.9155C34.0692 56.9392 23.0662 53.2896 15.0151 49.6393C11.0931 47.8611 8.08302 46.1779 6.06852 44.6364C3.93569 43.0044 3.00276 41.5819 3.29554 40.4085C3.866 38.1226 8.91721 37.6225 13.0542 37.6055L13.0556 37.9379C7.37442 37.9612 4.02281 38.8673 3.61813 40.4891C3.10264 42.5546 7.30673 45.7794 15.1523 49.3365C23.1858 52.9788 34.1685 56.6213 46.0774 59.593C57.9862 62.5647 69.3927 64.5091 78.1955 65.0681C86.7922 65.6142 92.0187 64.7426 92.5341 62.677C92.9621 60.962 90.1408 58.4356 84.59 55.563L84.7428 55.2678C88.7761 57.355 93.4578 60.3487 92.8567 62.7575C92.5639 63.9309 91.072 64.7482 88.4225 65.1868C86.9122 65.4368 85.0571 65.5621 82.8792 65.5621Z" fill="#3F3D56"/>
</g>
<defs>
<clipPath id="clip0_7352_17705">
<rect width="100" height="91.5547" fill="white" transform="translate(0.5)"/>
</clipPath>
</defs>
</svg>
