<svg width="200" height="172" viewBox="0 0 200 172" fill="none" xmlns="http://www.w3.org/2000/svg">
<path d="M96.8672 164.012L52 134.855" stroke="#7567FF" stroke-width="0.813687"/>
<circle cx="97.3287" cy="164.218" r="3.53824" transform="rotate(41.4562 97.3287 164.218)" fill="#F1F1FF" stroke="#7567FF" stroke-width="1.4153"/>
<circle cx="144.5" cy="106.5" r="14.5" fill="#FBF6FF"/>
<circle cx="79.5" cy="55.5" r="4.5" fill="#FBF6FF"/>
<path d="M171.5 149L112 149L112 111.5L145 111.5L145 77L199 77" stroke="#D0D0FF" stroke-width="0.5" stroke-linecap="round" stroke-linejoin="round"/>
<path d="M50.8677 135.012L6.00049 105.855" stroke="#7567FF" stroke-width="0.813687"/>
<path d="M94.273 107.21L96.6399 104.923L88.4645 104.781C86.3572 104.744 84.3218 105.547 82.8063 107.012L94.273 107.21Z" fill="#D0D0FF"/>
<path d="M65.7488 101.881L98.0229 70.6879C102.96 65.9162 110.828 66.0526 115.597 70.9925C120.366 75.9325 120.229 83.8053 115.292 88.577L105.54 98.0025L94.8973 97.818C90.4192 97.7404 86.0936 99.4459 82.8722 102.559L77.744 107.516L65.4451 119.403C60.6934 114.481 60.8293 106.636 65.7488 101.881Z" fill="#D0D0FF"/>
<path d="M69.3528 119.552L77.1176 112.047C78.4644 110.745 80.2734 110.032 82.1463 110.065L92.9599 110.252L88.3505 114.707C84.9833 117.961 80.4608 119.744 75.7787 119.663L69.3528 119.552Z" fill="#D0D0FF"/>
<path d="M56.1456 128.327L65.4758 119.309L69.5322 119.38L60.2021 128.397L56.1456 128.327Z" fill="#D0D0FF"/>
<path d="M133 135H52.0005L52.0005 43H133V89.5" stroke="#7567FF" stroke-width="2" stroke-linecap="round" stroke-linejoin="round"/>
<rect x="48.9035" y="130.189" width="8.95056" height="8.95056" transform="rotate(2.67915 48.9035 130.189)" fill="#F1F1FF" stroke="#7567FF" stroke-width="0.813687"/>
<circle cx="5.99371" cy="104.993" r="3.53824" transform="rotate(41.4562 5.99371 104.993)" fill="#F1F1FF" stroke="#7567FF" stroke-width="1.4153"/>
<path d="M68.9925 0.999166L69.4925 1C69.4925 3.26637 69.4925 5.37458 69.4817 7.33501L68.9925 0.999166ZM68.9925 0.999166C68.985 3.26522 68.978 5.37312 68.9817 7.33326L68.9925 0.999166ZM69.2425 77H69.4925C69.4925 66.0708 69.4927 57.8884 69.9568 51.7548C70.4214 45.6141 71.349 41.5758 73.1689 38.9032C74.9752 36.2506 77.688 34.9065 81.8367 34.2295C85.9965 33.5508 91.5518 33.55 99 33.55V33.3V33.05C92.0525 33.05 86.7386 33.0497 82.6654 32.6455C78.5894 32.241 75.8029 31.4354 73.8796 29.8609C71.964 28.2927 70.8646 25.9276 70.2456 22.3038C69.6261 18.6766 69.4943 13.8292 69.4817 7.33602L69.2425 77ZM69.2425 77H68.9925C68.9925 66.0706 68.9924 57.8888 68.5052 51.7557C68.0174 45.6159 67.0439 41.5795 65.1339 38.9079C63.2364 36.2539 60.3845 34.9076 56.0237 34.2298C51.6539 33.5507 45.8191 33.55 38 33.55V33.3V33.05M69.2425 77L38 33.05M38 33.05C45.2674 33.05 50.8277 33.0497 55.0916 32.6454C59.3588 32.2408 62.2812 31.4344 64.3021 29.8572C66.3134 28.2876 67.4709 25.9224 68.1306 22.3011C68.7912 18.6747 68.9459 13.828 68.9817 7.33427L38 33.05Z" fill="white" stroke="#D0D0FF" stroke-width="0.5"/>
<mask id="mask0_4119_2131" style="mask-type:alpha" maskUnits="userSpaceOnUse" x="151" y="26" width="31" height="116">
<rect x="151" y="26" width="30.381" height="116" fill="#D9D9D9"/>
</mask>
<g mask="url(#mask0_4119_2131)">
<path d="M181.227 25.5391L150.54 56.2269" stroke="#D0D0FF" stroke-width="0.661239"/>
<path d="M181.227 19.8613L150.54 50.5492" stroke="#D0D0FF" stroke-width="0.661239"/>
<path d="M181.227 14.0312L150.54 44.7191" stroke="#D0D0FF" stroke-width="0.661239"/>
<path d="M181.227 8.20117L150.54 38.889" stroke="#D0D0FF" stroke-width="0.661239"/>
<path d="M181.227 1.75586L150.54 32.4437" stroke="#D0D0FF" stroke-width="0.661239"/>
<path d="M181.227 56.2266L150.54 86.9144" stroke="#D0D0FF" stroke-width="0.661239"/>
<path d="M181.227 50.5488L150.54 81.2367" stroke="#D0D0FF" stroke-width="0.661239"/>
<path d="M181.227 44.7188L150.54 75.4066" stroke="#D0D0FF" stroke-width="0.661239"/>
<path d="M181.227 38.8887L150.54 69.5765" stroke="#D0D0FF" stroke-width="0.661239"/>
<path d="M181.227 32.4434L150.54 63.1312" stroke="#D0D0FF" stroke-width="0.661239"/>
<path d="M181.227 86.9141L150.54 117.602" stroke="#D0D0FF" stroke-width="0.661239"/>
<path d="M181.227 81.2383L150.54 111.926" stroke="#D0D0FF" stroke-width="0.661239"/>
<path d="M181.227 75.4062L150.54 106.094" stroke="#D0D0FF" stroke-width="0.661239"/>
<path d="M181.227 69.5762L150.54 100.264" stroke="#D0D0FF" stroke-width="0.661239"/>
<path d="M181.227 63.1309L150.54 93.8187" stroke="#D0D0FF" stroke-width="0.661239"/>
<path d="M181.227 117.602L150.54 148.289" stroke="#D0D0FF" stroke-width="0.661239"/>
<path d="M181.227 123.895L150.54 154.582" stroke="#D0D0FF" stroke-width="0.661239"/>
<path d="M181.227 130.031L150.54 160.719" stroke="#D0D0FF" stroke-width="0.661239"/>
<path d="M181.227 136.477L150.54 167.164" stroke="#D0D0FF" stroke-width="0.661239"/>
<path d="M181.227 111.926L150.54 142.614" stroke="#D0D0FF" stroke-width="0.661239"/>
<path d="M181.227 106.096L150.54 136.784" stroke="#D0D0FF" stroke-width="0.661239"/>
<path d="M181.227 100.264L150.54 130.952" stroke="#D0D0FF" stroke-width="0.661239"/>
<path d="M181.227 93.8184L150.54 124.506" stroke="#D0D0FF" stroke-width="0.661239"/>
</g>
</svg>
