<svg width="379" height="296" viewBox="0 0 379 296" fill="none" xmlns="http://www.w3.org/2000/svg">
<g filter="url(#filter0_d_4873_1432)">
<rect x="35" y="46" width="307" height="228" fill="white"/>
</g>
<rect x="160.1" y="56.1" width="178.8" height="208.8" stroke="#D0D0FF" stroke-width="0.2"/>
<path d="M252.743 1L251.743 0.998332V0.998596C251.735 3.26444 251.728 5.37298 251.732 7.33386C251.696 13.83 251.541 18.655 250.885 22.2563C250.23 25.8477 249.091 28.1437 247.148 29.6602C245.186 31.1917 242.324 31.993 238.068 32.3965C233.819 32.7995 228.272 32.8 221 32.8V33.3V33.8C228.828 33.8 234.639 33.8014 238.985 34.4769C243.313 35.1495 246.088 36.4766 247.93 39.0533C249.798 41.6653 250.769 45.6413 251.256 51.7755C251.742 57.8963 251.743 66.0662 251.743 77H252.243H252.743C252.743 66.0666 252.743 57.8956 253.206 51.7737C253.67 45.6376 254.596 41.6579 256.376 39.0439C258.128 36.4699 260.764 35.1474 264.877 34.4763C269.012 33.8016 274.543 33.8 282 33.8V33.3V32.8C275.047 32.8 269.748 32.7994 265.69 32.3967C261.627 31.9935 258.902 31.1936 257.038 29.6674C255.189 28.1538 254.106 25.8579 253.492 22.2617C252.877 18.6583 252.744 13.8315 252.732 7.33539C252.743 5.37478 252.743 3.26657 252.743 1.0012V1Z" fill="white" stroke="#D0D0FF"/>
<path d="M259 164.497C296.5 154.497 322.152 124.512 297.5 96.4976C275.5 71.4974 216.5 91.498 216.5 125.497" stroke="#7567FF" stroke-width="16" stroke-dasharray="1 1"/>
<path d="M10.5 69.998C10.5 66.9605 12.9624 64.498 16 64.498H221C224.038 64.498 226.5 66.9605 226.5 69.998V76.998V229.498H10.5V146.998V76.998V69.998Z" fill="white" stroke="#16023E"/>
<rect x="92" y="167.998" width="14" height="38" rx="2" fill="#FF7450"/>
<rect x="114" y="152.998" width="14" height="53" rx="2" fill="#7567FF"/>
<rect x="182" y="167.998" width="14" height="38" rx="2" fill="#FF7450"/>
<rect x="136" y="165.998" width="14" height="40" rx="2" fill="#FEDF64"/>
<rect x="158" y="180.998" width="14" height="25" rx="2" fill="#FEDF64"/>
<circle cx="20" cy="70.998" r="2" fill="#16023E"/>
<circle cx="26" cy="70.998" r="2" fill="#16023E"/>
<circle cx="32" cy="70.998" r="2" fill="#16023E"/>
<path d="M243 130.637C243 127.523 245.524 124.998 248.639 124.998H368.361C371.476 124.998 374 127.523 374 130.637V186.998C374 192.521 369.523 196.998 364 196.998H253C247.477 196.998 243 192.521 243 186.998V160.998V130.637Z" fill="#7567FF"/>
<path d="M243.5 140.775C243.5 138.413 245.415 136.498 247.777 136.498H369.223C371.585 136.498 373.5 138.413 373.5 140.775V196.498H243.5V166.498V140.775Z" fill="white" stroke="#16023E"/>
<rect x="255" y="157.998" width="14" height="27" rx="2" fill="#FF7450"/>
<rect x="277" y="146.998" width="14" height="38" rx="2" fill="#7567FF"/>
<rect x="299" y="155.998" width="14" height="29" rx="2" fill="#FEDF64"/>
<rect x="321" y="166.998" width="14" height="18" rx="2" fill="#FEDF64"/>
<path d="M327.368 166.632L308.669 169.406" stroke="#16023E" stroke-width="0.287462"/>
<circle cx="309.5" cy="169.498" r="1.25" fill="#F1F1FF" stroke="#16023E" stroke-width="0.5"/>
<path d="M346.64 163.568L327.941 166.342" stroke="#16023E" stroke-width="0.287462"/>
<path d="M340.201 159.402L341.111 158.522L337.966 158.467C337.155 158.453 336.372 158.762 335.788 159.325L340.201 159.402Z" fill="#16023E"/>
<path d="M331.437 155.922L343.855 143.919C345.755 142.083 348.783 142.136 350.617 144.036C352.452 145.937 352.4 148.967 350.5 150.803L346.748 154.429L342.653 154.358C340.93 154.328 339.265 154.985 338.026 156.183L336.052 158.09L331.32 162.664C329.492 160.77 329.544 157.751 331.437 155.922Z" fill="#16023E"/>
<path d="M332.824 162.721L335.812 159.833C336.33 159.332 337.026 159.058 337.747 159.071L341.907 159.143L340.134 160.857C338.838 162.109 337.098 162.795 335.296 162.764L332.824 162.721Z" fill="#16023E"/>
<path d="M327.742 166.097L331.332 162.628L332.893 162.655L329.303 166.124L327.742 166.097Z" fill="#16023E"/>
<rect x="326.361" y="164.476" width="3.16208" height="3.16208" fill="#F1F1FF" stroke="black" stroke-width="0.287462"/>
<rect x="238.5" y="121.5" width="9" height="9" rx="1.5" fill="#F1F1FF" stroke="#16023E"/>
<rect x="238.5" y="191.5" width="9" height="9" rx="1.5" fill="#F1F1FF" stroke="#16023E"/>
<rect x="369.5" y="191.5" width="9" height="9" rx="1.5" fill="#F1F1FF" stroke="#16023E"/>
<rect x="369.5" y="121.5" width="9" height="9" rx="1.5" fill="#F1F1FF" stroke="#16023E"/>
<circle cx="346.5" cy="163.498" r="1.25" fill="#F1F1FF" stroke="#16023E" stroke-width="0.5"/>
<path d="M272.499 196.499C272.499 266 376 244.498 328.5 168.999" stroke="#7567FF" stroke-width="16" stroke-dasharray="1 1"/>
<rect x="11" y="77" width="215" height="8" fill="#16023E"/>
<rect x="15" y="95" width="63" height="126" rx="4" fill="#F1F1FF"/>
<rect x="82" y="95" width="139" height="52" rx="4" fill="#F1F1FF"/>
<rect x="92" y="102" width="12" height="4" rx="2" fill="#7567FF"/>
<rect x="153" y="102" width="24" height="4" rx="2" fill="#7567FF"/>
<rect x="92" y="112" width="29" height="4" rx="2" fill="#7567FF" fill-opacity="0.2"/>
<rect x="153" y="112" width="59" height="4" rx="2" fill="#7567FF" fill-opacity="0.2"/>
<rect x="92" y="124" width="12" height="4" rx="2" fill="#7567FF"/>
<rect x="92" y="134" width="29" height="4" rx="2" fill="#7567FF" fill-opacity="0.2"/>
<path d="M82 85V80C82 78.8954 81.1046 78 80 78H51C49.8954 78 49 78.8954 49 80V85" stroke="#7567FF"/>
<path d="M117 85V80C117 78.8954 116.105 78 115 78H86C84.8954 78 84 78.8954 84 80V85" stroke="#7567FF"/>
<path d="M11 80C11 78.8954 11.8954 78 13 78H45C46.1046 78 47 78.8954 47 80V85H11V80Z" fill="#7567FF"/>
<path d="M216 55.5H233.5V75.5" stroke="#FEDF64" stroke-width="5" stroke-linecap="round" stroke-linejoin="round"/>
<path d="M20.5 56.5H3V76.5" stroke="#FEDF64" stroke-width="5" stroke-linecap="round" stroke-linejoin="round"/>
<path d="M216 240H233.5V220" stroke="#FEDF64" stroke-width="5" stroke-linecap="round" stroke-linejoin="round"/>
<path d="M20.5 239H3V219" stroke="#FEDF64" stroke-width="5" stroke-linecap="round" stroke-linejoin="round"/>
<rect x="21" y="102" width="20" height="4" rx="2" fill="white"/>
<rect x="21" y="112" width="48" height="4" rx="2" fill="white"/>
<rect x="21" y="122" width="48" height="4" rx="2" fill="white"/>
<rect x="21" y="132" width="48" height="4" rx="2" fill="white"/>
<rect x="21" y="142" width="28" height="4" rx="2" fill="white"/>
<rect x="21" y="156" width="51" height="57" rx="4" fill="white"/>
<defs>
<filter id="filter0_d_4873_1432" x="15" y="28" width="347" height="268" filterUnits="userSpaceOnUse" color-interpolation-filters="sRGB">
<feFlood flood-opacity="0" result="BackgroundImageFix"/>
<feColorMatrix in="SourceAlpha" type="matrix" values="0 0 0 0 0 0 0 0 0 0 0 0 0 0 0 0 0 0 127 0" result="hardAlpha"/>
<feOffset dy="2"/>
<feGaussianBlur stdDeviation="10"/>
<feComposite in2="hardAlpha" operator="out"/>
<feColorMatrix type="matrix" values="0 0 0 0 0 0 0 0 0 0 0 0 0 0 0 0 0 0 0.06 0"/>
<feBlend mode="normal" in2="BackgroundImageFix" result="effect1_dropShadow_4873_1432"/>
<feBlend mode="normal" in="SourceGraphic" in2="effect1_dropShadow_4873_1432" result="shape"/>
</filter>
</defs>
</svg>
