<svg width="44" height="44" viewBox="0 0 44 44" fill="none" xmlns="http://www.w3.org/2000/svg">
<g id="Group 5968">
<rect id="Rectangle" x="0.25" y="0.25" width="43.5" height="43.5" rx="21.75" fill="#D0D0FF" stroke="#DDDDDD" stroke-width="0.5"/>
<g id="Group 36">
<path id="Vector 521" d="M24.5736 25.6835L25.7035 24.5713H21.7202C20.7042 24.5713 19.7289 24.9708 19.0049 25.6835H24.5736Z" fill="#7567FF"/>
<g id="Group 33">
<path id="Rectangle 204" d="M12.4965 24.2532L24.6309 12.3085C26.4871 10.4813 29.4967 10.4813 31.3529 12.3085C33.2091 14.1357 33.2091 17.0982 31.3529 18.9254L27.6863 22.5347L23.7025 22.5347C21.9339 22.5347 20.2377 23.2263 18.9871 24.4573L17.1206 26.2946L12.4965 30.8465C10.6469 29.0258 10.6469 26.0738 12.4965 24.2532Z" fill="#7567FF"/>
<path id="Vector 516" d="M13.9912 30.8769L16.8943 28.0192C17.4116 27.51 18.1083 27.2246 18.8342 27.2246H22.9565L21.2643 28.8904C19.9711 30.1634 18.2292 30.8769 16.4145 30.8769L13.9912 30.8769Z" fill="#7567FF"/>
<path id="Vector 517" d="M9 34.2636L12.5079 30.8105H14.0595L10.5516 34.2636H9Z" fill="#7567FF"/>
</g>
</g>
</g>
</svg>
