<svg width="40" height="40" viewBox="0 0 40 40" fill="none" xmlns="http://www.w3.org/2000/svg">
<rect width="40" height="40" rx="8" fill="#7567FF"/>
<path d="M23.0023 23.6825L24.1322 22.5703H20.1489C19.1329 22.5703 18.1577 22.9698 17.4336 23.6825H23.0023Z" fill="#F4F4F4"/>
<path d="M10.9252 22.2522L23.0596 10.3076C24.9158 8.48036 27.9254 8.48036 29.7816 10.3076C31.6378 12.1348 31.6378 15.0973 29.7816 16.9245L26.115 20.5337L22.1313 20.5337C20.3626 20.5337 18.6664 21.2253 17.4158 22.4563L15.5493 24.2937L10.9252 28.8455C9.07558 27.0248 9.07558 24.0729 10.9252 22.2522Z" fill="#F4F4F4"/>
<path d="M12.4199 28.8769L15.323 26.0192C15.8403 25.51 16.5371 25.2246 17.2629 25.2246H21.3853L19.693 26.8904C18.3998 28.1634 16.6579 28.8769 14.8432 28.8769L12.4199 28.8769Z" fill="#F4F4F4"/>
<path d="M7.42871 32.2636L10.9366 28.8105H12.4882L8.98029 32.2636H7.42871Z" fill="#F4F4F4"/>
</svg>
