<svg width="189" height="185" viewBox="0 0 189 185" fill="none" xmlns="http://www.w3.org/2000/svg">
<path d="M114.554 121.844L122.793 113.734H93.7486C86.3402 113.734 79.2288 116.647 73.9492 121.844H114.554Z" fill="white"/>
<path d="M26.4864 111.446L114.966 24.3497C128.501 11.0263 150.446 11.0263 163.981 24.3497C177.516 37.673 177.516 59.2745 163.981 72.5979L137.246 98.9152L107.268 98.9152C94.9667 98.9152 83.1695 103.725 74.4713 112.287L60.2039 126.332L26.4864 159.522C12.9996 146.246 12.9996 124.722 26.4864 111.446Z" fill="white"/>
<path d="M37.3848 159.718L58.8247 138.613C62.4225 135.071 67.2686 133.086 72.3171 133.086L102.757 133.086L89.7386 145.901C80.744 154.755 68.6288 159.718 56.0075 159.718L37.3848 159.718Z" fill="white"/>
<path d="M0.992188 184.417L26.5708 159.238H37.8844L12.3058 184.417H0.992188Z" fill="white"/>
</svg>
