<svg width="610" height="540" viewBox="0 0 610 540" fill="none" xmlns="http://www.w3.org/2000/svg">
<path d="M558.78 382.414L596.777 291.302C599.524 284.715 594.685 277.453 587.547 277.453H524.646L482.646 378.5H405.146L455.146 394.716H478.717H540.321C548.392 394.716 555.673 389.864 558.78 382.414Z" stroke="white" stroke-width="0.525842" stroke-linecap="round"/>
<path d="M455.316 449.404C476.14 454.452 485.728 444.321 487.919 438.624L497.121 456.503L500.013 454.662L506.06 466.494L493.44 474.118L487.919 472.278L486.867 479.903L476.876 485.687C460.312 485.687 428.236 485.687 427.447 484.898C426.921 477.273 437.964 468.597 448.48 465.442C456.894 462.918 456.543 453.698 455.316 449.404Z" fill="white" stroke="white" stroke-width="0.525842" stroke-linecap="round"/>
<path d="M497.646 455C495.813 458.833 489.831 467.083 487.146 469C483.646 471.5 472.146 476.667 466.646 480H428.146" stroke="#7567FF"/>
<path d="M474.646 270C480.325 264.11 485.728 267.199 493.177 268.514C503.431 268.163 525.201 267.304 538.663 277.19C555.49 289.548 559.646 367.5 559.646 367.5L479.646 346L477.646 320.309H448.218C467.646 302.5 468.967 275.889 474.646 270Z" fill="#7CEAF3"/>
<path d="M498.698 256.946C485.289 257.735 491.146 241 494.228 232.231C500.012 223.818 510.003 229.602 512.107 233.546L515.146 241L508.689 267.726C507.462 271.056 503.378 277.822 496.857 278.243C488.707 278.768 488.444 271.67 493.177 269.303C496.963 267.41 498.435 260.276 498.698 256.946Z" fill="#FEDF64"/>
<path d="M498.646 257C499.813 257 502.446 256.4 503.646 254" stroke="#16023E" stroke-width="0.5"/>
<path d="M492.914 248.007C494.755 248.708 499.805 249.69 500.646 248.007C500.646 249.321 499.646 251 496.646 251" stroke="#16023E" stroke-width="0.5" stroke-linecap="round"/>
<path d="M513.159 241.696C512.739 239.593 509.128 240.82 507.375 241.696L503.957 234.334C499.575 234.159 490.232 232.757 487.919 228.55C485.027 223.292 492.651 214.353 505.797 219.348C516.314 223.344 515.788 228.726 514.211 230.917C516.314 230.829 520.994 232.284 522.887 238.804C525.254 246.955 506.874 251.95 522.887 252.476C538.9 253.002 548.874 287.151 539.146 279C529.418 270.849 512.801 269.289 509.646 268.5C506.491 267.711 505.797 245.377 508.164 246.166C510.53 246.955 513.685 244.325 513.159 241.696Z" fill="#16023E" stroke="#16023E" stroke-width="0.525842" stroke-linecap="round"/>
<mask id="mask0_322_1195" style="mask-type:alpha" maskUnits="userSpaceOnUse" x="497" y="238" width="7" height="5">
<path d="M503.813 242.062C503.715 240.722 502.386 238.153 497.848 238.595C498.108 240.248 499.664 243.256 503.813 242.062Z" fill="#D9D9D9"/>
</mask>
<g mask="url(#mask0_322_1195)">
<path d="M503.813 242.062C503.715 240.722 502.386 238.153 497.848 238.595C498.108 240.248 499.664 243.256 503.813 242.062Z" fill="white"/>
<circle r="1.56351" transform="matrix(-0.808502 -0.588493 -0.588493 0.808502 498.83 239.184)" fill="#16023E"/>
</g>
<mask id="mask1_322_1195" style="mask-type:alpha" maskUnits="userSpaceOnUse" x="489" y="237" width="6" height="3">
<path d="M494.774 239.055C494.44 238.018 492.898 236.25 489.407 237.471C489.93 238.723 491.735 240.794 494.774 239.055Z" fill="#D9D9D9"/>
</mask>
<g mask="url(#mask1_322_1195)">
<path d="M494.775 239.055C494.441 238.018 492.899 236.25 489.408 237.471C489.931 238.723 491.736 240.794 494.775 239.055Z" fill="white"/>
<circle r="1.21325" transform="matrix(-0.924981 -0.380014 -0.380014 0.924981 490.768 237.421)" fill="#16023E"/>
</g>
<path d="M499.146 235.5C500.313 235.833 503.046 237.1 504.646 239.5" stroke="#16023E" stroke-width="0.5"/>
<path d="M489.646 233C490.813 233.333 493.546 234.6 495.146 237" stroke="#16023E" stroke-width="0.5"/>
<path d="M455.842 450.456L447.954 438.624L482.134 430.211L487.655 438.624C485.552 457.344 465.57 454.312 455.842 450.456Z" fill="#FEDF64" stroke="white" stroke-width="0.525842" stroke-linecap="round"/>
<path d="M126.846 291.73H233.74V319.375H133.293C129.732 319.375 126.846 316.488 126.846 312.928V291.73Z" fill="#D0D0FF" stroke="#16023E" stroke-width="1.1058"/>
<path d="M130.846 291.73H237.74V308.552C237.74 313.276 241.569 317.105 246.293 317.105H276.605C277.232 317.105 277.74 317.613 277.74 318.24C277.74 318.867 277.232 319.375 276.605 319.375H170.293H140.293C135.075 319.375 130.846 315.145 130.846 309.928V291.73Z" fill="#7567FF" stroke="#16023E" stroke-width="1.1058"/>
<rect x="9" y="53" width="331.293" height="245.177" rx="7.17941" fill="#D0D0FF"/>
<rect x="16.5385" y="53.5385" width="325.923" height="243.923" rx="6.64096" fill="#16023E" stroke="#16023E" stroke-width="1.07691"/>
<rect x="17.2054" y="53.8978" width="325.19" height="220.767" rx="6.64096" fill="#7567FF" stroke="#16023E" stroke-width="1.07691"/>
<circle cx="189.293" cy="286.177" r="6" fill="#7567FF"/>
<path d="M44.4442 65.5697H327.753C329.536 65.5697 330.981 67.0149 330.981 68.7977V260.202C330.981 261.985 329.536 263.43 327.753 263.43H44.4442C42.6614 263.43 41.2161 261.985 41.2161 260.202V68.7977C41.2161 67.0149 42.6614 65.5697 44.4442 65.5697Z" fill="white" stroke="#16023E" stroke-width="1.13931"/>
<rect x="52.0391" y="99.5594" width="54.2652" height="144.497" rx="9.46485" fill="#F3F3FF"/>
<path d="M58.9795 153.926H90.8445" stroke="#D0D0FF" stroke-width="1.57748" stroke-linecap="round"/>
<path d="M58.9795 167.597H90.8445" stroke="#D0D0FF" stroke-width="1.57748" stroke-linecap="round"/>
<path d="M58.9795 182.786H90.8445" stroke="#D0D0FF" stroke-width="1.57748" stroke-linecap="round"/>
<path d="M58.9795 197.978H90.8445" stroke="#D0D0FF" stroke-width="1.57748" stroke-linecap="round"/>
<path d="M58.9795 211.65H90.8445" stroke="#D0D0FF" stroke-width="1.57748" stroke-linecap="round"/>
<rect x="112.299" y="99.5593" width="66.254" height="84.8682" rx="9.46485" fill="#F3F3FF"/>
<rect x="133.437" y="111.863" width="34.7045" height="3.78594" rx="1.89297" fill="#D0D0FF"/>
<rect x="133.437" y="126.692" width="34.7045" height="3.78594" rx="1.89297" fill="#D0D0FF"/>
<rect x="121.133" y="109.97" width="7.57188" height="7.57188" rx="3.78594" fill="#D0D0FF"/>
<rect x="121.133" y="124.798" width="7.57188" height="7.57188" rx="3.78594" fill="#D0D0FF"/>
<rect x="112.299" y="191.368" width="204.441" height="52.6877" rx="9.46485" fill="#F3F3FF"/>
<rect x="186.124" y="99.5593" width="130.615" height="84.8682" rx="9.46485" fill="#F3F3FF"/>
<path d="M190.439 152.74L186.124 155.505V178.119C186.124 181.604 188.949 184.429 192.434 184.429H310.429C313.914 184.429 316.739 181.604 316.739 178.119V136.242L313.13 134.416C310.716 133.194 307.793 133.647 305.862 135.541L295.871 145.342C293.014 148.144 288.303 147.613 286.141 144.245L279.701 134.208C277.077 130.118 271.008 130.405 268.782 134.725L266.813 138.545C265.023 142.018 260.54 143.046 257.416 140.701L255.913 139.572C253.375 137.668 249.819 137.943 247.605 140.216L244.504 143.399C242.613 145.34 239.695 145.857 237.252 144.684L232.498 142.401C230.073 141.237 227.157 141.757 225.264 143.668C223.485 145.464 220.787 146.043 218.438 145.111L217.577 144.77C215.087 143.782 212.245 144.475 210.488 146.497L205.915 151.761C204.006 153.958 200.842 154.565 198.256 153.229L196.739 152.446C194.737 151.412 192.336 151.524 190.439 152.74Z" fill="url(#paint0_linear_322_1195)"/>
<path d="M186.124 155.505C187.188 155.505 188.666 154.665 190.02 153.692C192.226 152.109 195.131 151.616 197.544 152.862L198.256 153.229C200.842 154.565 204.006 153.958 205.915 151.761L210.488 146.497C212.245 144.475 215.087 143.782 217.577 144.77L218.438 145.111C220.787 146.043 223.485 145.464 225.264 143.668V143.668C227.157 141.757 230.073 141.237 232.498 142.401L237.252 144.684C239.695 145.857 242.613 145.34 244.504 143.399L247.605 140.216C249.819 137.943 253.375 137.668 255.913 139.572L257.297 140.611C260.461 142.987 265.005 141.898 266.749 138.346L268.761 134.249C270.949 129.794 277.185 129.492 279.793 133.714L286.182 144.057C288.308 147.5 293.08 148.079 295.969 145.245L305.862 135.541C307.793 133.647 310.639 133.326 312.893 134.822C314.103 135.626 315.288 136.242 316.739 136.242" stroke="#FEDF64" stroke-width="1.57748"/>
<path d="M274 134L274 184" stroke="white" stroke-width="2" stroke-dasharray="3.26 3.26"/>
<circle cx="274.305" cy="130.313" r="2.68171" fill="white" stroke="#FEDF64" stroke-width="1.26198"/>
<path d="M240.495 235.788V233.996C239.475 233.916 238.616 233.681 237.918 233.292C237.22 232.889 236.617 232.393 236.107 231.802L237.737 230.313C238.126 230.769 238.562 231.145 239.045 231.44C239.528 231.722 240.072 231.903 240.676 231.984V227.898C239.2 227.589 238.133 227.119 237.475 226.489C236.831 225.845 236.509 225.026 236.509 224.033C236.509 222.96 236.858 222.101 237.556 221.457C238.254 220.799 239.233 220.397 240.495 220.249V218.438H242.487V220.249C243.333 220.343 244.057 220.551 244.661 220.873C245.278 221.195 245.815 221.638 246.271 222.202L244.621 223.631C244.352 223.309 244.03 223.027 243.655 222.785C243.292 222.544 242.843 222.369 242.306 222.262V226.006C243.742 226.341 244.795 226.811 245.466 227.415C246.137 228.005 246.473 228.824 246.473 229.87C246.473 230.903 246.137 231.796 245.466 232.547C244.795 233.285 243.802 233.748 242.487 233.936V235.788H240.495ZM238.945 223.933C238.945 224.402 239.079 224.764 239.347 225.019C239.629 225.274 240.072 225.482 240.676 225.643V222.242C239.522 222.443 238.945 223.007 238.945 223.933ZM244.057 230.051C244.057 229.649 243.93 229.3 243.675 229.005C243.433 228.696 242.977 228.448 242.306 228.26V231.964C242.87 231.843 243.299 231.615 243.594 231.279C243.903 230.93 244.057 230.521 244.057 230.051ZM259.172 234.137V231.42H252.812V229.166L258.407 220.088H261.688V229.367H263.52V231.42H261.688V234.137H259.172ZM254.985 229.367H259.172V222.664H259.011L254.985 229.367ZM266.068 234.137V231.984H269.932V222H269.751L266.692 225.623L265.041 224.234L268.524 220.088H272.529V231.984H275.749V234.137H266.068ZM287.295 234.137H277.553V231.682L281.961 227.817C282.713 227.16 283.263 226.569 283.612 226.046C283.96 225.509 284.135 224.932 284.135 224.315V224.053C284.135 223.436 283.934 222.966 283.531 222.644C283.128 222.309 282.639 222.141 282.062 222.141C281.337 222.141 280.787 222.349 280.411 222.765C280.036 223.168 279.767 223.657 279.606 224.234L277.312 223.349C277.459 222.879 277.667 222.436 277.935 222.02C278.204 221.591 278.539 221.215 278.942 220.893C279.358 220.571 279.841 220.316 280.391 220.128C280.941 219.94 281.572 219.847 282.283 219.847C283.021 219.847 283.679 219.954 284.256 220.169C284.833 220.37 285.316 220.658 285.705 221.034C286.107 221.41 286.409 221.853 286.611 222.363C286.825 222.872 286.933 223.429 286.933 224.033C286.933 224.624 286.839 225.16 286.651 225.643C286.463 226.126 286.208 226.589 285.886 227.032C285.564 227.462 285.188 227.878 284.759 228.28C284.329 228.669 283.873 229.065 283.39 229.468L280.431 231.903H287.295V234.137ZM298.74 222.383H292.42L292.098 227.093H292.239C292.386 226.797 292.547 226.522 292.722 226.267C292.896 226.012 293.097 225.798 293.325 225.623C293.554 225.449 293.815 225.315 294.11 225.221C294.419 225.113 294.788 225.06 295.217 225.06C295.821 225.06 296.385 225.16 296.908 225.362C297.432 225.563 297.881 225.858 298.257 226.247C298.646 226.623 298.948 227.086 299.163 227.636C299.391 228.186 299.505 228.81 299.505 229.508C299.505 230.219 299.391 230.87 299.163 231.46C298.934 232.051 298.599 232.567 298.156 233.01C297.713 233.44 297.17 233.775 296.526 234.017C295.882 234.258 295.144 234.379 294.312 234.379C293.668 234.379 293.091 234.305 292.581 234.157C292.071 234.023 291.621 233.835 291.232 233.594C290.843 233.352 290.508 233.077 290.226 232.769C289.944 232.447 289.696 232.111 289.481 231.762L291.413 230.273C291.574 230.541 291.742 230.796 291.916 231.038C292.091 231.266 292.292 231.467 292.52 231.641C292.762 231.816 293.024 231.957 293.305 232.064C293.601 232.158 293.943 232.205 294.332 232.205C295.124 232.205 295.721 231.984 296.123 231.541C296.539 231.098 296.747 230.494 296.747 229.729V229.568C296.747 228.844 296.539 228.273 296.123 227.857C295.707 227.441 295.13 227.233 294.392 227.233C293.815 227.233 293.346 227.348 292.983 227.576C292.621 227.79 292.332 228.025 292.118 228.28L289.944 227.978L290.467 220.088H298.74V222.383Z" fill="#7567FF"/>
<path d="M239.233 235.788V233.996C238.213 233.916 237.354 233.681 236.656 233.292C235.959 232.889 235.355 232.393 234.845 231.802L236.475 230.313C236.864 230.769 237.301 231.145 237.784 231.44C238.267 231.722 238.81 231.903 239.414 231.984V227.898C237.938 227.589 236.871 227.119 236.214 226.489C235.57 225.845 235.247 225.026 235.247 224.033C235.247 222.96 235.596 222.101 236.294 221.457C236.992 220.799 237.971 220.397 239.233 220.249V218.438H241.225V220.249C242.071 220.343 242.795 220.551 243.399 220.873C244.017 221.195 244.553 221.638 245.01 222.202L243.359 223.631C243.091 223.309 242.769 223.027 242.393 222.785C242.031 222.544 241.581 222.369 241.044 222.262V226.006C242.48 226.341 243.533 226.811 244.204 227.415C244.875 228.005 245.211 228.824 245.211 229.87C245.211 230.903 244.875 231.796 244.204 232.547C243.533 233.285 242.54 233.748 241.225 233.936V235.788H239.233ZM237.683 223.933C237.683 224.402 237.817 224.764 238.086 225.019C238.367 225.274 238.81 225.482 239.414 225.643V222.242C238.26 222.443 237.683 223.007 237.683 223.933ZM242.795 230.051C242.795 229.649 242.668 229.3 242.413 229.005C242.171 228.696 241.715 228.448 241.044 228.26V231.964C241.608 231.843 242.037 231.615 242.333 231.279C242.641 230.93 242.795 230.521 242.795 230.051ZM257.91 234.137V231.42H251.55V229.166L257.145 220.088H260.426V229.367H262.258V231.42H260.426V234.137H257.91ZM253.724 229.367H257.91V222.664H257.749L253.724 229.367ZM264.806 234.137V231.984H268.671V222H268.49L265.43 225.623L263.78 224.234L267.262 220.088H271.267V231.984H274.488V234.137H264.806ZM286.033 234.137H276.291V231.682L280.699 227.817C281.451 227.16 282.001 226.569 282.35 226.046C282.699 225.509 282.873 224.932 282.873 224.315V224.053C282.873 223.436 282.672 222.966 282.269 222.644C281.867 222.309 281.377 222.141 280.8 222.141C280.075 222.141 279.525 222.349 279.15 222.765C278.774 223.168 278.505 223.657 278.344 224.234L276.05 223.349C276.197 222.879 276.405 222.436 276.674 222.02C276.942 221.591 277.278 221.215 277.68 220.893C278.096 220.571 278.579 220.316 279.129 220.128C279.68 219.94 280.31 219.847 281.021 219.847C281.759 219.847 282.417 219.954 282.994 220.169C283.571 220.37 284.054 220.658 284.443 221.034C284.846 221.41 285.148 221.853 285.349 222.363C285.564 222.872 285.671 223.429 285.671 224.033C285.671 224.624 285.577 225.16 285.389 225.643C285.201 226.126 284.946 226.589 284.624 227.032C284.302 227.462 283.927 227.878 283.497 228.28C283.068 228.669 282.611 229.065 282.128 229.468L279.17 231.903H286.033V234.137ZM297.478 222.383H291.158L290.836 227.093H290.977C291.124 226.797 291.285 226.522 291.46 226.267C291.634 226.012 291.836 225.798 292.064 225.623C292.292 225.449 292.554 225.315 292.849 225.221C293.157 225.113 293.526 225.06 293.956 225.06C294.56 225.06 295.123 225.16 295.646 225.362C296.17 225.563 296.619 225.858 296.995 226.247C297.384 226.623 297.686 227.086 297.901 227.636C298.129 228.186 298.243 228.81 298.243 229.508C298.243 230.219 298.129 230.87 297.901 231.46C297.673 232.051 297.337 232.567 296.894 233.01C296.452 233.44 295.908 233.775 295.264 234.017C294.62 234.258 293.882 234.379 293.05 234.379C292.406 234.379 291.829 234.305 291.319 234.157C290.809 234.023 290.36 233.835 289.97 233.594C289.581 233.352 289.246 233.077 288.964 232.769C288.682 232.447 288.434 232.111 288.219 231.762L290.152 230.273C290.313 230.541 290.48 230.796 290.655 231.038C290.829 231.266 291.03 231.467 291.259 231.641C291.5 231.816 291.762 231.957 292.044 232.064C292.339 232.158 292.681 232.205 293.07 232.205C293.862 232.205 294.459 231.984 294.861 231.541C295.277 231.098 295.485 230.494 295.485 229.729V229.568C295.485 228.844 295.277 228.273 294.861 227.857C294.446 227.441 293.869 227.233 293.131 227.233C292.554 227.233 292.084 227.348 291.722 227.576C291.359 227.79 291.071 228.025 290.856 228.28L288.682 227.978L289.206 220.088H297.478V222.383Z" fill="white"/>
<path d="M239.233 235.788H238.853V236.168H239.233V235.788ZM239.233 233.996H239.613V233.645L239.263 233.618L239.233 233.996ZM236.656 233.292L236.467 233.621L236.471 233.624L236.656 233.292ZM234.845 231.802L234.589 231.522L234.316 231.771L234.558 232.051L234.845 231.802ZM236.475 230.313L236.764 230.067L236.509 229.768L236.219 230.033L236.475 230.313ZM237.784 231.44L237.586 231.764L237.592 231.768L237.784 231.44ZM239.414 231.984L239.364 232.36L239.794 232.417V231.984H239.414ZM239.414 227.898H239.794V227.589L239.492 227.526L239.414 227.898ZM236.214 226.489L235.945 226.757L235.951 226.763L236.214 226.489ZM236.294 221.457L236.552 221.736L236.555 221.733L236.294 221.457ZM239.233 220.249L239.277 220.626L239.613 220.587V220.249H239.233ZM239.233 218.438V218.058H238.853V218.438H239.233ZM241.225 218.438H241.605V218.058H241.225V218.438ZM241.225 220.249H240.846V220.589L241.184 220.627L241.225 220.249ZM243.399 220.873L243.221 221.208L243.224 221.21L243.399 220.873ZM245.01 222.202L245.258 222.489L245.536 222.248L245.305 221.963L245.01 222.202ZM243.359 223.631L243.067 223.874L243.315 224.171L243.608 223.918L243.359 223.631ZM242.393 222.785L242.182 223.101L242.188 223.105L242.393 222.785ZM241.044 222.262L241.119 221.889L240.665 221.799V222.262H241.044ZM241.044 226.006H240.665V226.307L240.958 226.375L241.044 226.006ZM244.204 227.415L243.95 227.697L243.954 227.7L244.204 227.415ZM244.204 232.547L244.485 232.803L244.488 232.8L244.204 232.547ZM241.225 233.936L241.172 233.56L240.846 233.607V233.936H241.225ZM241.225 235.788V236.168H241.605V235.788H241.225ZM238.086 225.019L237.824 225.295L237.831 225.301L238.086 225.019ZM239.414 225.643L239.316 226.01L239.794 226.138V225.643H239.414ZM239.414 222.242H239.794V221.79L239.349 221.868L239.414 222.242ZM242.413 229.005L242.114 229.239L242.12 229.246L242.126 229.253L242.413 229.005ZM241.044 228.26L241.147 227.894L240.665 227.759V228.26H241.044ZM241.044 231.964H240.665V232.433L241.124 232.335L241.044 231.964ZM242.333 231.279L242.048 231.028L242.047 231.028L242.333 231.279ZM239.613 235.788V233.996H238.853V235.788H239.613ZM239.263 233.618C238.283 233.54 237.48 233.316 236.841 232.96L236.471 233.624C237.228 234.046 238.143 234.291 239.203 234.375L239.263 233.618ZM236.846 232.963C236.184 232.581 235.614 232.111 235.132 231.554L234.558 232.051C235.096 232.674 235.733 233.198 236.467 233.621L236.846 232.963ZM235.101 232.083L236.731 230.593L236.219 230.033L234.589 231.522L235.101 232.083ZM236.186 230.559C236.6 231.044 237.066 231.447 237.586 231.764L237.982 231.116C237.535 230.843 237.129 230.494 236.764 230.067L236.186 230.559ZM237.592 231.768C238.122 232.078 238.715 232.274 239.364 232.36L239.464 231.607C238.906 231.533 238.411 231.366 237.975 231.112L237.592 231.768ZM239.794 231.984V227.898H239.034V231.984H239.794ZM239.492 227.526C238.044 227.223 237.059 226.774 236.477 226.215L235.951 226.763C236.683 227.465 237.831 227.955 239.336 228.269L239.492 227.526ZM236.482 226.22C235.916 225.654 235.627 224.935 235.627 224.033H234.868C234.868 225.117 235.223 226.035 235.945 226.757L236.482 226.22ZM235.627 224.033C235.627 223.05 235.942 222.298 236.552 221.736L236.037 221.178C235.25 221.903 234.868 222.869 234.868 224.033H235.627ZM236.555 221.733C237.176 221.147 238.071 220.767 239.277 220.626L239.189 219.872C237.872 220.026 236.808 220.451 236.034 221.18L236.555 221.733ZM239.613 220.249V218.438H238.853V220.249H239.613ZM239.233 218.817H241.225V218.058H239.233V218.817ZM240.846 218.438V220.249H241.605V218.438H240.846ZM241.184 220.627C241.992 220.716 242.668 220.914 243.221 221.208L243.578 220.538C242.923 220.188 242.149 219.97 241.267 219.872L241.184 220.627ZM243.224 221.21C243.793 221.507 244.289 221.916 244.714 222.44L245.305 221.963C244.817 221.36 244.24 220.883 243.575 220.536L243.224 221.21ZM244.761 221.914L243.11 223.343L243.608 223.918L245.258 222.489L244.761 221.914ZM243.651 223.387C243.356 223.034 243.004 222.727 242.598 222.466L242.188 223.105C242.533 223.327 242.825 223.583 243.067 223.874L243.651 223.387ZM242.604 222.469C242.191 222.194 241.692 222.004 241.119 221.889L240.97 222.634C241.47 222.734 241.87 222.893 242.182 223.101L242.604 222.469ZM240.665 222.262V226.006H241.424V222.262H240.665ZM240.958 226.375C242.367 226.705 243.348 227.155 243.95 227.697L244.458 227.132C243.719 226.467 242.594 225.978 241.131 225.636L240.958 226.375ZM243.954 227.7C244.528 228.205 244.831 228.912 244.831 229.87H245.591C245.591 228.735 245.222 227.805 244.455 227.13L243.954 227.7ZM244.831 229.87C244.831 230.813 244.528 231.614 243.921 232.294L244.488 232.8C245.222 231.977 245.591 230.994 245.591 229.87H244.831ZM243.923 232.292C243.329 232.945 242.428 233.381 241.172 233.56L241.279 234.312C242.652 234.116 243.738 233.625 244.485 232.803L243.923 232.292ZM240.846 233.936V235.788H241.605V233.936H240.846ZM241.225 235.408H239.233V236.168H241.225V235.408ZM237.303 223.933C237.303 224.477 237.461 224.95 237.824 225.295L238.347 224.744C238.173 224.579 238.063 224.328 238.063 223.933H237.303ZM237.831 225.301C238.177 225.615 238.687 225.843 239.316 226.01L239.512 225.276C238.933 225.122 238.557 224.934 238.34 224.738L237.831 225.301ZM239.794 225.643V222.242H239.034V225.643H239.794ZM239.349 221.868C238.729 221.976 238.213 222.189 237.85 222.544C237.478 222.908 237.303 223.384 237.303 223.933H238.063C238.063 223.555 238.177 223.287 238.381 223.087C238.595 222.878 238.945 222.709 239.479 222.616L239.349 221.868ZM243.175 230.051C243.175 229.561 243.017 229.123 242.7 228.756L242.126 229.253C242.319 229.477 242.416 229.737 242.416 230.051H243.175ZM242.712 228.771C242.395 228.365 241.842 228.089 241.147 227.894L240.942 228.626C241.588 228.807 241.948 229.027 242.114 229.239L242.712 228.771ZM240.665 228.26V231.964H241.424V228.26H240.665ZM241.124 232.335C241.744 232.202 242.255 231.942 242.618 231.53L242.047 231.028C241.82 231.287 241.472 231.484 240.965 231.592L241.124 232.335ZM242.617 231.531C242.988 231.112 243.175 230.613 243.175 230.051H242.416C242.416 230.429 242.295 230.749 242.048 231.028L242.617 231.531ZM257.91 234.137H257.53V234.517H257.91V234.137ZM257.91 231.42H258.29V231.04H257.91V231.42ZM251.55 231.42H251.17V231.8H251.55V231.42ZM251.55 229.166L251.227 228.966L251.17 229.058V229.166H251.55ZM257.145 220.088V219.708H256.933L256.822 219.889L257.145 220.088ZM260.426 220.088H260.806V219.708H260.426V220.088ZM260.426 229.367H260.046V229.747H260.426V229.367ZM262.258 229.367H262.638V228.987H262.258V229.367ZM262.258 231.42V231.8H262.638V231.42H262.258ZM260.426 231.42V231.04H260.046V231.42H260.426ZM260.426 234.137V234.517H260.806V234.137H260.426ZM253.724 229.367L253.398 229.171L253.053 229.747H253.724V229.367ZM257.91 229.367V229.747H258.29V229.367H257.91ZM257.91 222.664H258.29V222.285H257.91V222.664ZM257.749 222.664V222.285H257.534L257.424 222.469L257.749 222.664ZM258.29 234.137V231.42H257.53V234.137H258.29ZM257.91 231.04H251.55V231.8H257.91V231.04ZM251.93 231.42V229.166H251.17V231.42H251.93ZM251.873 229.365L257.469 220.287L256.822 219.889L251.227 228.966L251.873 229.365ZM257.145 220.468H260.426V219.708H257.145V220.468ZM260.046 220.088V229.367H260.806V220.088H260.046ZM260.426 229.747H262.258V228.987H260.426V229.747ZM261.878 229.367V231.42H262.638V229.367H261.878ZM262.258 231.04H260.426V231.8H262.258V231.04ZM260.046 231.42V234.137H260.806V231.42H260.046ZM260.426 233.758H257.91V234.517H260.426V233.758ZM253.724 229.747H257.91V228.987H253.724V229.747ZM258.29 229.367V222.664H257.53V229.367H258.29ZM257.91 222.285H257.749V223.044H257.91V222.285ZM257.424 222.469L253.398 229.171L254.049 229.563L258.075 222.86L257.424 222.469ZM264.806 234.137H264.426V234.517H264.806V234.137ZM264.806 231.984V231.604H264.426V231.984H264.806ZM268.671 231.984V232.363H269.051V231.984H268.671ZM268.671 222H269.051V221.62H268.671V222ZM268.49 222V221.62H268.313L268.199 221.755L268.49 222ZM265.43 225.623L265.186 225.914L265.476 226.158L265.72 225.868L265.43 225.623ZM263.78 224.234L263.489 223.99L263.245 224.281L263.535 224.525L263.78 224.234ZM267.262 220.088V219.708H267.085L266.971 219.844L267.262 220.088ZM271.267 220.088H271.647V219.708H271.267V220.088ZM271.267 231.984H270.887V232.363H271.267V231.984ZM274.488 231.984H274.867V231.604H274.488V231.984ZM274.488 234.137V234.517H274.867V234.137H274.488ZM265.186 234.137V231.984H264.426V234.137H265.186ZM264.806 232.363H268.671V231.604H264.806V232.363ZM269.051 231.984V222H268.291V231.984H269.051ZM268.671 221.62H268.49V222.38H268.671V221.62ZM268.199 221.755L265.14 225.378L265.72 225.868L268.78 222.245L268.199 221.755ZM265.675 225.333L264.024 223.944L263.535 224.525L265.186 225.914L265.675 225.333ZM264.07 224.479L267.553 220.332L266.971 219.844L263.489 223.99L264.07 224.479ZM267.262 220.468H271.267V219.708H267.262V220.468ZM270.887 220.088V231.984H271.647V220.088H270.887ZM271.267 232.363H274.488V231.604H271.267V232.363ZM274.108 231.984V234.137H274.867V231.984H274.108ZM274.488 233.758H264.806V234.517H274.488V233.758ZM286.033 234.137V234.517H286.413V234.137H286.033ZM276.291 234.137H275.912V234.517H276.291V234.137ZM276.291 231.682L276.041 231.396L275.912 231.51V231.682H276.291ZM280.699 227.817L280.449 227.531L280.449 227.532L280.699 227.817ZM282.35 226.046L282.666 226.257L282.668 226.253L282.35 226.046ZM282.269 222.644L282.026 222.936L282.032 222.941L282.269 222.644ZM279.15 222.765L279.427 223.024L279.431 223.02L279.15 222.765ZM278.344 224.234L278.208 224.589L278.598 224.739L278.71 224.337L278.344 224.234ZM276.05 223.349L275.688 223.235L275.581 223.575L275.913 223.703L276.05 223.349ZM276.674 222.02L276.993 222.226L276.996 222.222L276.674 222.02ZM277.68 220.893L277.448 220.593L277.443 220.597L277.68 220.893ZM282.994 220.169L282.861 220.525L282.869 220.527L282.994 220.169ZM284.443 221.034L284.179 221.307L284.184 221.312L284.443 221.034ZM285.349 222.363L284.996 222.502L284.999 222.51L285.349 222.363ZM284.624 227.032L284.928 227.26L284.931 227.256L284.624 227.032ZM283.497 228.28L283.752 228.562L283.757 228.557L283.497 228.28ZM282.128 229.468L282.37 229.761L282.372 229.759L282.128 229.468ZM279.17 231.903L278.928 231.61L278.111 232.283H279.17V231.903ZM286.033 231.903H286.413V231.523H286.033V231.903ZM286.033 233.758H276.291V234.517H286.033V233.758ZM276.671 234.137V231.682H275.912V234.137H276.671ZM276.542 231.967L280.95 228.103L280.449 227.532L276.041 231.396L276.542 231.967ZM280.949 228.103C281.713 227.435 282.291 226.819 282.666 226.257L282.034 225.835C281.711 226.319 281.188 226.885 280.449 227.531L280.949 228.103ZM282.668 226.253C283.056 225.657 283.253 225.008 283.253 224.315H282.493C282.493 224.856 282.342 225.361 282.031 225.839L282.668 226.253ZM283.253 224.315V224.053H282.493V224.315H283.253ZM283.253 224.053C283.253 223.346 283.017 222.756 282.507 222.348L282.032 222.941C282.326 223.176 282.493 223.526 282.493 224.053H283.253ZM282.512 222.353C282.035 221.954 281.456 221.761 280.8 221.761V222.521C281.298 222.521 281.699 222.663 282.026 222.936L282.512 222.353ZM280.8 221.761C280.001 221.761 279.335 221.993 278.868 222.511L279.431 223.02C279.715 222.705 280.149 222.521 280.8 222.521V221.761ZM278.872 222.506C278.451 222.957 278.155 223.502 277.979 224.132L278.71 224.337C278.856 223.813 279.097 223.378 279.427 223.024L278.872 222.506ZM278.481 223.88L276.187 222.994L275.913 223.703L278.208 224.589L278.481 223.88ZM276.412 223.463C276.549 223.026 276.743 222.614 276.993 222.226L276.355 221.814C276.068 222.259 275.845 222.733 275.688 223.235L276.412 223.463ZM276.996 222.222C277.241 221.829 277.548 221.486 277.917 221.19L277.443 220.597C277.008 220.945 276.643 221.353 276.352 221.819L276.996 222.222ZM277.913 221.193C278.292 220.9 278.737 220.663 279.252 220.488L279.007 219.769C278.421 219.969 277.9 220.243 277.448 220.593L277.913 221.193ZM279.252 220.488C279.755 220.316 280.343 220.226 281.021 220.226V219.467C280.277 219.467 279.604 219.565 279.007 219.769L279.252 220.488ZM281.021 220.226C281.723 220.226 282.334 220.328 282.861 220.525L283.126 219.813C282.499 219.579 281.796 219.467 281.021 219.467V220.226ZM282.869 220.527C283.401 220.713 283.835 220.974 284.179 221.307L284.707 220.761C284.273 220.342 283.741 220.027 283.119 219.81L282.869 220.527ZM284.184 221.312C284.546 221.649 284.815 222.045 284.996 222.502L285.702 222.223C285.48 221.66 285.146 221.171 284.702 220.756L284.184 221.312ZM284.999 222.51C285.192 222.969 285.291 223.475 285.291 224.033H286.051C286.051 223.383 285.935 222.776 285.699 222.215L284.999 222.51ZM285.291 224.033C285.291 224.583 285.204 225.072 285.035 225.506L285.743 225.781C285.95 225.248 286.051 224.664 286.051 224.033H285.291ZM285.035 225.506C284.86 225.957 284.621 226.391 284.317 226.809L284.931 227.256C285.272 226.788 285.543 226.296 285.743 225.781L285.035 225.506ZM284.32 226.804C284.013 227.214 283.652 227.614 283.237 228.003L283.757 228.557C284.201 228.141 284.592 227.709 284.928 227.26L284.32 226.804ZM283.242 227.999C282.817 228.384 282.365 228.776 281.885 229.176L282.372 229.759C282.858 229.354 283.319 228.954 283.752 228.562L283.242 227.999ZM281.887 229.174L278.928 231.61L279.411 232.196L282.37 229.761L281.887 229.174ZM279.17 232.283H286.033V231.523H279.17V232.283ZM285.653 231.903V234.137H286.413V231.903H285.653ZM297.478 222.383V222.762H297.858V222.383H297.478ZM291.158 222.383V222.003H290.803L290.779 222.357L291.158 222.383ZM290.836 227.093L290.457 227.067L290.429 227.472H290.836V227.093ZM290.977 227.093V227.472H291.212L291.316 227.262L290.977 227.093ZM291.46 226.267L291.146 226.053L291.46 226.267ZM292.064 225.623L292.294 225.925V225.925L292.064 225.623ZM292.849 225.221L292.964 225.583L292.973 225.579L292.849 225.221ZM295.646 225.362L295.51 225.716L295.646 225.362ZM296.995 226.247L296.722 226.511L296.731 226.52L296.995 226.247ZM297.901 227.636L297.547 227.774L297.55 227.781L297.901 227.636ZM297.901 231.46L297.547 231.323V231.323L297.901 231.46ZM296.894 233.01L297.159 233.283L297.163 233.279L296.894 233.01ZM295.264 234.017L295.397 234.372L295.264 234.017ZM291.319 234.157L291.425 233.793L291.416 233.79L291.319 234.157ZM289.97 233.594L289.77 233.917L289.97 233.594ZM288.964 232.769L288.678 233.019L288.684 233.025L288.964 232.769ZM288.219 231.762L287.987 231.461L287.717 231.67L287.896 231.961L288.219 231.762ZM290.152 230.273L290.477 230.077L290.258 229.711L289.92 229.972L290.152 230.273ZM290.655 231.038L290.347 231.26L290.353 231.268L290.655 231.038ZM291.259 231.641L291.028 231.943L291.036 231.949L291.259 231.641ZM292.044 232.064L291.908 232.419L291.918 232.423L291.928 232.426L292.044 232.064ZM294.861 231.541L294.585 231.281L294.58 231.285L294.861 231.541ZM291.722 227.576L291.915 227.902L291.924 227.897L291.722 227.576ZM290.856 228.28L290.804 228.656L291.011 228.685L291.147 228.525L290.856 228.28ZM288.682 227.978L288.303 227.953L288.28 228.306L288.63 228.354L288.682 227.978ZM289.206 220.088V219.708H288.85L288.827 220.063L289.206 220.088ZM297.478 220.088H297.858V219.708H297.478V220.088ZM297.478 222.003H291.158V222.762H297.478V222.003ZM290.779 222.357L290.457 227.067L291.215 227.118L291.537 222.409L290.779 222.357ZM290.836 227.472H290.977V226.713H290.836V227.472ZM291.316 227.262C291.457 226.982 291.609 226.722 291.773 226.482L291.146 226.053C290.962 226.323 290.792 226.613 290.637 226.923L291.316 227.262ZM291.773 226.482C291.927 226.258 292.101 226.073 292.294 225.925L291.833 225.322C291.571 225.522 291.342 225.767 291.146 226.053L291.773 226.482ZM292.294 225.925C292.485 225.779 292.707 225.664 292.964 225.583L292.734 224.859C292.4 224.965 292.099 225.119 291.833 225.322L292.294 225.925ZM292.973 225.579C293.232 225.49 293.556 225.439 293.956 225.439V224.68C293.496 224.68 293.083 224.737 292.724 224.862L292.973 225.579ZM293.956 225.439C294.517 225.439 295.034 225.533 295.51 225.716L295.783 225.007C295.213 224.788 294.603 224.68 293.956 224.68V225.439ZM295.51 225.716C295.984 225.898 296.386 226.163 296.722 226.511L297.268 225.983C296.853 225.553 296.356 225.228 295.783 225.007L295.51 225.716ZM296.731 226.52C297.078 226.855 297.35 227.27 297.547 227.774L298.255 227.498C298.022 226.902 297.691 226.391 297.259 225.974L296.731 226.52ZM297.55 227.781C297.756 228.278 297.863 228.852 297.863 229.508H298.623C298.623 228.769 298.502 228.094 298.252 227.491L297.55 227.781ZM297.863 229.508C297.863 230.178 297.756 230.782 297.547 231.323L298.255 231.597C298.502 230.958 298.623 230.26 298.623 229.508H297.863ZM297.547 231.323C297.337 231.865 297.031 232.337 296.626 232.742L297.163 233.279C297.644 232.798 298.008 232.236 298.255 231.597L297.547 231.323ZM296.63 232.738C296.229 233.127 295.732 233.436 295.131 233.661L295.397 234.372C296.085 234.114 296.674 233.753 297.159 233.283L296.63 232.738ZM295.131 233.661C294.537 233.884 293.846 233.999 293.05 233.999V234.759C293.918 234.759 294.703 234.633 295.397 234.372L295.131 233.661ZM293.05 233.999C292.434 233.999 291.894 233.928 291.425 233.793L291.213 234.522C291.764 234.682 292.377 234.759 293.05 234.759V233.999ZM291.416 233.79C290.937 233.664 290.523 233.49 290.171 233.271L289.77 233.917C290.196 234.181 290.681 234.382 291.222 234.525L291.416 233.79ZM290.171 233.271C289.808 233.046 289.501 232.793 289.244 232.513L288.684 233.025C288.991 233.361 289.354 233.658 289.77 233.917L290.171 233.271ZM289.25 232.519C288.981 232.212 288.746 231.893 288.543 231.563L287.896 231.961C288.122 232.329 288.383 232.681 288.678 233.019L289.25 232.519ZM288.451 232.063L290.383 230.574L289.92 229.972L287.987 231.461L288.451 232.063ZM289.826 230.468C289.992 230.745 290.166 231.009 290.347 231.26L290.963 230.815C290.795 230.583 290.633 230.337 290.477 230.077L289.826 230.468ZM290.353 231.268C290.548 231.523 290.773 231.748 291.028 231.943L291.489 231.34C291.288 231.186 291.11 231.008 290.956 230.807L290.353 231.268ZM291.036 231.949C291.305 232.143 291.596 232.3 291.908 232.419L292.179 231.709C291.928 231.614 291.695 231.488 291.481 231.334L291.036 231.949ZM291.928 232.426C292.269 232.534 292.651 232.585 293.07 232.585V231.825C292.711 231.825 292.409 231.782 292.159 231.702L291.928 232.426ZM293.07 232.585C293.932 232.585 294.647 232.342 295.143 231.796L294.58 231.285C294.271 231.626 293.791 231.825 293.07 231.825V232.585ZM295.138 231.801C295.636 231.271 295.865 230.565 295.865 229.729H295.106C295.106 230.424 294.919 230.925 294.585 231.281L295.138 231.801ZM295.865 229.729V229.568H295.106V229.729H295.865ZM295.865 229.568C295.865 228.768 295.633 228.092 295.13 227.589L294.593 228.126C294.922 228.455 295.106 228.92 295.106 229.568H295.865ZM295.13 227.589C294.626 227.085 293.942 226.854 293.131 226.854V227.613C293.795 227.613 294.265 227.798 294.593 228.126L295.13 227.589ZM293.131 226.854C292.506 226.854 291.96 226.977 291.519 227.254L291.924 227.897C292.208 227.718 292.601 227.613 293.131 227.613V226.854ZM291.528 227.249C291.138 227.48 290.814 227.741 290.566 228.035L291.147 228.525C291.328 228.31 291.58 228.101 291.915 227.902L291.528 227.249ZM290.908 227.904L288.734 227.602L288.63 228.354L290.804 228.656L290.908 227.904ZM289.061 228.003L289.585 220.113L288.827 220.063L288.303 227.953L289.061 228.003ZM289.206 220.468H297.478V219.708H289.206V220.468ZM297.098 220.088V222.383H297.858V220.088H297.098Z" fill="#16023E"/>
<path d="M297.495 203.988H290.869L294.075 199.255L297.495 203.988Z" fill="#FF7450"/>
<path d="M285.505 199.256H278.88L282.086 203.989L285.505 199.256Z" fill="#48C696"/>
<circle cx="144.637" cy="159.03" r="16.879" stroke="#FF7450" stroke-width="5.67891"/>
<path d="M161.516 159.03C161.516 168.352 153.959 175.909 144.637 175.909C135.315 175.909 127.758 168.352 127.758 159.03C127.758 149.708 135.315 142.151 144.637 142.151" stroke="#7CEAF3" stroke-width="5.67891"/>
<path d="M161.515 159.03C161.515 168.352 153.958 175.909 144.636 175.909C140.78 175.909 137.225 174.616 134.383 172.439" stroke="#FEDF64" stroke-width="5.67891"/>
<rect x="128.379" y="211.442" width="14.5122" height="23.0877" rx="3.15495" fill="#FF7450"/>
<rect x="148.58" y="207.143" width="13.8818" height="27.1326" rx="3.15495" fill="#FEDF64"/>
<rect x="167.109" y="203.995" width="14.0515" height="30.3817" rx="3.15495" fill="#FEDF64"/>
<rect x="185.809" y="207.143" width="13.8818" height="27.1326" rx="3.15495" fill="#FEDF64"/>
<path d="M57.7178 122.276H89.5828" stroke="#7567FF" stroke-width="1.57748" stroke-linecap="round"/>
<path d="M57.7178 126.692H89.5828" stroke="#7567FF" stroke-width="1.57748" stroke-linecap="round"/>
<rect x="54.8789" y="136.473" width="48.9017" height="10.4113" rx="1.89297" fill="#7567FF"/>
<path d="M58.9795 141.521H90.8445" stroke="#D0D0FF" stroke-width="1.57748" stroke-linecap="round"/>
<circle cx="62.2925" cy="112.652" r="4.89017" fill="#D0D0FF"/>
<path d="M98.1016 139.943L99.679 141.52L98.1016 143.097" stroke="#D0D0FF" stroke-width="0.63099" stroke-linecap="round" stroke-linejoin="round"/>
<path d="M44.4442 65.1899H327.753C329.746 65.1899 331.361 66.8052 331.361 68.7977V83.4189H40.8364V68.7977C40.8364 66.8052 42.4516 65.1899 44.4442 65.1899Z" fill="#16023E" stroke="#16023E" stroke-width="0.379771"/>
<path d="M389.646 81.5V62H426.646V81.5C426.646 85.366 423.512 88.5 419.646 88.5H396.646C392.78 88.5 389.646 85.366 389.646 81.5Z" fill="#D0D0FF" fill-opacity="0.3"/>
<path d="M389.646 62V81.5C389.646 85.366 392.78 88.5 396.646 88.5H419.646C423.512 88.5 426.646 85.366 426.646 81.5V62M389.646 62H426.646M389.646 62L402.671 73.9081C405.24 76.2567 409.144 76.3612 411.835 74.1534L426.646 62" stroke="#FEDF64"/>
<path d="M442.646 78V88C442.646 91.866 445.78 95 449.646 95H459.646C463.512 95 466.646 91.866 466.646 88V78M442.646 78H466.646M442.646 78L449.549 84.2416C452.109 86.5566 455.975 86.6599 458.655 84.485L466.646 78" stroke="#7CEAF3"/>
<path d="M413.646 27V37C413.646 40.866 416.78 44 420.646 44H430.646C434.512 44 437.646 40.866 437.646 37V27M413.646 27H437.646M413.646 27L420.549 33.2416C423.109 35.5566 426.975 35.6599 429.655 33.485L437.646 27" stroke="#FF7450"/>
<circle cx="52.0391" cy="74.8746" r="3.03817" fill="white"/>
<circle cx="61.1534" cy="74.8746" r="3.03817" fill="white"/>
<circle cx="70.2677" cy="74.8746" r="3.03817" fill="white"/>
<path d="M228.833 167.292C229.253 169.606 232.864 173.865 234.617 175.706C236.089 182.436 225.94 187.625 220.682 189.377C217.527 185.609 210.849 177.599 209.376 175.706C207.904 173.813 207.536 171.586 207.536 170.71C205.17 168.782 199.911 164.453 197.808 162.56C195.704 160.666 196.931 158.265 197.808 157.301L207.536 165.977C205.783 163.436 201.909 157.88 200.437 155.986C198.965 154.093 199.824 150.816 200.437 149.413L207.536 157.301C206.66 155.373 204.591 151.096 203.329 149.413C202.067 147.731 203.855 145.557 204.907 144.681L215.687 157.301C213.583 153.971 209.008 146.784 207.536 144.681C206.064 142.578 208.149 141.351 209.376 141C215.687 148.8 228.412 164.978 228.833 167.292Z" fill="#D0D0FF"/>
<path d="M221.996 160.72L209.639 154.41C207.646 153.5 207.273 156.46 208.325 158.353C209.376 160.246 215.423 163.875 218.316 165.452C217.264 165.365 215.108 165.663 214.898 167.556C214.687 169.449 215.511 172.726 215.949 174.129" stroke="#16023E" stroke-width="0.525842" stroke-linecap="round"/>
<path d="M281.154 446.514L297.683 259.314H360.357C364.795 267.828 372.753 289.909 369.08 310.13C365.407 330.35 363.724 409.478 363.341 446.514H320.641H281.154Z" fill="#FF7450"/>
<path d="M281.154 446.514L297.683 259.314L313.501 261V289C313.501 292.866 316.635 296 320.501 296L320.641 446.514H281.154Z" fill="#DB5836"/>
<path d="M311.646 446.5H320.646V344L311.646 446.5Z" fill="#16023E"/>
<path d="M320.646 344V446.5H311.646L320.646 344ZM320.646 344V296V296C316.976 296 314 293.024 314 289.354V270.5" stroke="#16023E"/>
<path d="M331.646 266.5C331.646 271.167 335.746 280.2 352.146 279V446.5" stroke="#16023E"/>
<path d="M367.986 479.689L366.02 452.521L331 452.521L322.89 470.592L303.583 473.645C294.116 479.203 298.345 485.32 301.642 487.683L371.468 487.61L370.793 480.077L367.986 479.689Z" fill="#16023E" stroke="#16023E" stroke-width="0.525842"/>
<path d="M312.772 479.689L310.806 452.521L279.5 452.521L267.676 470.592L248.369 473.645C238.902 479.203 243.131 485.32 246.428 487.683L316.255 487.61L315.579 480.077L312.772 479.689Z" fill="#16023E" stroke="#16023E" stroke-width="0.525842"/>
<path d="M322.646 483H248.646" stroke="white" stroke-width="0.5"/>
<path d="M276.146 470H266.146C265.042 470 264.146 469.105 264.146 468C264.146 466.895 265.042 466 266.146 466H276.146C277.251 466 278.146 466.895 278.146 468C278.146 469.105 277.251 470 276.146 470Z" fill="white"/>
<path d="M330 470H320C318.895 470 318 469.105 318 468C318 466.895 318.895 466 320 466H330C331.105 466 332 466.895 332 468C332 469.105 331.105 470 330 470Z" fill="white"/>
<path d="M280.646 464H270.646C269.542 464 268.646 463.105 268.646 462C268.646 460.895 269.542 460 270.646 460H280.646C281.751 460 282.646 460.895 282.646 462C282.646 463.105 281.751 464 280.646 464Z" fill="white"/>
<path d="M334.5 464H324.5C323.395 464 322.5 463.105 322.5 462C322.5 460.895 323.395 460 324.5 460H334.5C335.605 460 336.5 460.895 336.5 462C336.5 463.105 335.605 464 334.5 464Z" fill="white"/>
<path d="M283.703 452.157V446.657H310.203V452.157H283.703Z" fill="#D0D0FF"/>
<path d="M331 452.157V446.657H357.5V452.157H331Z" fill="#D0D0FF"/>
<circle r="6.23558" transform="matrix(-0.999999 0.00130426 0.00130426 0.999999 355.022 467.171)" fill="white"/>
<circle r="6.23558" transform="matrix(-0.999999 0.00130426 0.00130426 0.999999 299.808 467.171)" fill="white"/>
<circle r="6.23558" transform="matrix(-0.999999 0.00130426 0.00130426 0.999999 353.662 467.171)" fill="white"/>
<path d="M275.107 197.791C270.059 197.581 246.886 180 235.931 171.236C233.828 176.582 226.834 187.38 215.687 187.8C224.801 199.632 245.554 223.978 255.651 226.713C265.747 229.447 291.146 225 301.146 222.5L297 261.5L370.5 275.5L366.34 258.526C382.845 260.661 405.91 261.828 411.826 258.526C420.87 253.478 399.118 227.151 387.111 214.618C362.134 182.805 355.035 190.43 343.203 190.43C330.646 192.007 327.146 192.007 320.592 192.007C317.963 191.218 281.417 198.054 275.107 197.791Z" fill="#16023E"/>
<path d="M382.116 234.6H366.34M366.34 234.6H350.565C356.454 247.221 351.617 253.355 348.462 254.845C354.465 255.997 357.61 257.397 366.34 258.526M366.34 234.6L352.931 217.248M366.34 258.526C382.845 260.661 405.91 261.828 411.826 258.526C420.87 253.478 399.118 227.151 387.111 214.618C362.134 182.805 355.035 190.43 343.203 190.43C330.646 192.007 327.146 192.007 320.592 192.007C317.963 191.218 281.417 198.054 275.107 197.791C270.059 197.581 246.886 180 235.931 171.236C233.828 176.582 226.834 187.38 215.687 187.8C224.801 199.632 245.554 223.978 255.651 226.713C265.747 229.447 291.146 225 301.146 222.5L297 261.5L370.5 275.5L366.34 258.526Z" stroke="#16023E" stroke-width="0.525842" stroke-linecap="round"/>
<path d="M273.792 197.528C276.772 199.369 282.574 204.995 281.943 212.778" stroke="white" stroke-width="0.525842" stroke-linecap="round"/>
<path d="M406.567 238.018C402.623 237.492 394.21 238.649 392.106 247.483" stroke="white" stroke-width="0.525842" stroke-linecap="round"/>
<path d="M327.294 157.495C327.317 157.453 327.339 157.412 327.362 157.371C327.308 157.443 327.286 157.483 327.294 157.495C325.002 161.687 320.629 170.383 320.947 172.606C321.348 175.412 324.154 179.822 329.366 179.822C329.366 181.827 329.767 189.362 327.362 191.5C324.154 193.638 321.268 201.075 327.362 203C333.456 204.924 342.195 199.5 340.837 194.373L339.389 174.209C341.527 174.477 345.804 174.53 345.804 172.606C345.804 170.2 344.2 164.588 342.195 165.79C341.047 145.496 327.463 157.751 327.294 157.495Z" fill="#D0D0FF"/>
<path d="M332 163C333.107 162.844 336.559 164.019 337.5 167.5" stroke="#16023E" stroke-linecap="round"/>
<path d="M324.501 161C324.501 161 327.06 158.52 328.001 162" stroke="#16023E" stroke-linecap="round"/>
<path d="M329.146 180C330.48 179.833 333.446 179.2 334.646 178" stroke="#16023E" stroke-width="0.5"/>
<circle r="6.90929" transform="matrix(-1 0 0 1 354.331 151.02)" fill="white" stroke="#16023E" stroke-width="0.863661"/>
<path d="M344.601 168.195C343.147 166 340.191 166 339.79 170.199C340.001 157.5 330.267 160 328.647 155.768L326.001 160C324.001 155 324.001 152.5 327.501 149.5C330.999 146.501 346.647 142.268 353.147 155.768C358.001 168.194 346.501 172.5 340.501 184L339.79 175C341.803 173.674 346.805 171.52 344.601 168.195Z" fill="white"/>
<path d="M331.371 153.361C329.366 153.361 328.263 154.766 328.647 155.768M328.647 155.768C330.267 160 340.001 157.5 339.79 170.199C340.191 166 343.147 166 344.601 168.195C346.805 171.52 341.803 173.674 339.79 175L340.501 184C346.501 172.5 358.001 168.194 353.147 155.768C346.647 142.268 330.999 146.501 327.501 149.5C324.001 152.5 324.001 155 326.001 160L328.647 155.768Z" stroke="#16023E" stroke-width="0.925904"/>
<circle r="4.75014" transform="matrix(-1 0 0 1 385.829 152.182)" fill="white" stroke="#16023E" stroke-width="0.863661"/>
<circle r="10.3639" transform="matrix(-1 0 0 1 372.443 142.796)" fill="white" stroke="#16023E" stroke-width="0.863661"/>
<mask id="mask2_322_1195" style="mask-type:alpha" maskUnits="userSpaceOnUse" x="331" y="166" width="5" height="3">
<path d="M335.831 168.424C335.765 167.515 334.863 165.772 331.785 166.072C331.961 167.194 333.017 169.234 335.831 168.424Z" fill="#D9D9D9"/>
</mask>
<g mask="url(#mask2_322_1195)">
<path d="M335.831 168.424C335.765 167.515 334.863 165.772 331.785 166.072C331.961 167.193 333.017 169.233 335.831 168.424Z" fill="white"/>
<circle r="1.52281" transform="matrix(-0.808502 -0.588493 -0.588493 0.808502 332.433 166.964)" fill="#16023E"/>
</g>
<mask id="mask3_322_1195" style="mask-type:alpha" maskUnits="userSpaceOnUse" x="322" y="162" width="6" height="4">
<path d="M327.011 165.215C326.945 164.306 326.043 162.563 322.965 162.863C323.141 163.985 324.197 166.025 327.011 165.215Z" fill="#D9D9D9"/>
</mask>
<g mask="url(#mask3_322_1195)">
<path d="M326.831 165.423C326.765 164.514 325.863 162.771 322.785 163.071C322.961 164.192 324.017 166.232 326.831 165.423Z" fill="white"/>
<circle r="1.52281" transform="matrix(-0.808502 -0.588493 -0.588493 0.808502 323.613 163.755)" fill="#16023E"/>
</g>
<path d="M329.168 163.385C328.232 164.588 326.121 167.153 325.159 167.795C324.197 168.436 325.292 169.399 325.961 169.799" stroke="#16023E" stroke-width="0.801832" stroke-linecap="round"/>
<path d="M325.758 172.606C326.693 173.006 328.885 173.407 330.168 171.804" stroke="#16023E" stroke-width="0.801832" stroke-linecap="round"/>
<path d="M382.116 234.6H366.34M366.34 234.6H350.565C356.454 247.22 351.617 253.355 348.462 254.845C354.465 255.997 357.5 256.5 366.34 258.5M366.34 234.6L352.931 217.247M301.146 222.5L302.646 211.5" stroke="white" stroke-width="0.525842" stroke-linecap="round"/>
<path d="M334.889 229.079C338 233.812 345.68 234.247 350.5 236C354 242.5 352.855 248.535 351.716 250.901C346.983 251.427 336.685 250.228 329.5 248.5C321.185 246.5 315.432 244 315.432 244C315.432 244 313.043 242.646 315.146 241.699C316.377 241.145 325.5 243.5 328.5 244L313.5 240C313.5 240 312.854 237.5 316 238C317.854 238.295 326.371 240.307 329 241C312.685 236.268 314.5 235 315.432 233.812C318 232.5 325 236.967 329.5 237.5C325 236 316.5 231 318.85 229.079C319.406 227.728 331.72 234.081 337.567 236.271C334.114 234.259 331.687 228.602 334.889 229.079Z" fill="#D0D0FF"/>
<path d="M350.5 236C345.68 234.247 338 233.812 334.889 229.079C331 228.5 335.414 236.967 339.884 236.967C336.203 236.441 319.5 227.5 318.85 229.079C316.5 231 325 236 329.5 237.5C325 236.967 318 232.5 315.432 233.812C314.5 235 312.685 236.268 329 241C326.371 240.307 317.854 238.295 316 238C312.854 237.5 313.5 240 313.5 240L328.5 244C325.5 243.5 316.377 241.145 315.146 241.699C313.043 242.646 315.432 244 315.432 244C315.432 244 321.185 246.5 329.5 248.5C336.685 250.228 346.983 251.427 351.716 250.901C352.855 248.535 354 242.5 350.5 236Z" stroke="#16023E" stroke-width="0.525842" stroke-linecap="round"/>
<path d="M516.568 463.431V409.572C516.568 404.707 520.512 400.764 525.376 400.764V400.764C530.241 400.764 534.184 404.707 534.184 409.572V463.436C534.184 468.662 538.42 472.898 543.646 472.898V472.898" stroke="white" stroke-width="0.525842" stroke-linecap="round"/>
<circle cx="555" cy="477" r="8.75" fill="#7567FF" stroke="white" stroke-width="0.5"/>
<path d="M567 477C567 470.373 561.627 465 555 465C548.373 465 543 470.373 543 477" stroke="white" stroke-width="0.5"/>
<path d="M135.646 487L590.646 487" stroke="white" stroke-linecap="round"/>
<path d="M392.146 348H90.016H86.788C78.0756 348 71.0128 355.063 71.0128 363.775V471.225C71.0128 479.937 63.95 487 55.2375 487H23.6465" stroke="white" stroke-width="0.5" stroke-linecap="round"/>
<rect x="0.25" y="320.085" width="492.286" height="12.3359" rx="6.16797" fill="#7567FF" stroke="white" stroke-width="0.5"/>
<path d="M500.013 301.643L510.267 290.074L537.085 299.972C537.085 299.972 514.146 325 510.267 323.465C491.412 322.162 473.125 321.541 457.646 321.274C431.98 320.832 414.038 321.362 414.038 321.362C418.858 316.542 438.332 305.008 442.959 303.746C447.587 302.484 482.923 301.818 500.013 301.643Z" fill="#FEDF64"/>
<path d="M365.321 320.271L352.158 288.771C351.607 287.453 352.575 286 354.003 286H390.128C390.978 286 391.735 286.537 392.016 287.339L402.451 317.161C402.732 317.963 403.489 318.5 404.339 318.5H439C439.828 318.5 440.5 319.172 440.5 320C440.5 320.828 439.828 321.5 439 321.5H367.166C366.359 321.5 365.632 321.015 365.321 320.271Z" fill="#D0D0FF"/>
<path d="M352.5 288H389.5C389.927 288 390.307 288.271 390.446 288.676L400.5 318" stroke="#16023E" stroke-width="0.5"/>
<path d="M460.646 315C461.146 316.667 461.546 320.2 459.146 321" stroke="#16023E"/>
<path d="M431.646 317C435.146 314.5 442.746 309.6 445.146 310" stroke="#16023E"/>
<path d="M423.646 317.023C427.146 314.523 434.746 309.623 437.146 310.023" stroke="#16023E"/>
<path d="M510.267 290.074L521.309 278.769M500.013 301.643C501.59 304.184 504.693 310.161 504.482 313.737M542.08 295.596L537.085 299.972" stroke="#16023E" stroke-width="0.525842" stroke-linecap="round"/>
<path d="M411.409 348.442C425.291 334.56 477.139 338.626 501.328 342.395C510.793 342.395 533.772 343.867 549.968 349.757C566.164 355.646 558.908 380.519 548.391 386.829C538.926 394.453 461.627 383.674 461.627 383.674L501.328 434.154L440.33 438.887C436.65 433.073 432.288 425.675 427.97 417.59L425.081 432.051L371.971 424.689L408.158 354.727C408.741 352.184 409.796 350.055 411.409 348.442Z" fill="#16023E"/>
<path d="M411.408 348.442C400.839 359.012 414.188 391.794 427.969 417.591M461.626 383.674C457.945 381.132 450.373 374.682 449.532 369.213" stroke="white" stroke-width="0.525842" stroke-linecap="round"/>
<path d="M449.532 369.213C450.373 374.682 457.945 381.132 461.626 383.674C475.133 385.783 503.046 389.6 506.646 388C511.046 386.4 470.403 374.809 449.532 369.213Z" fill="#16023E"/>
<path d="M448.743 461.235L450.321 458.08L464.781 462.55L463.467 465.442L448.743 461.235Z" fill="#7567FF" stroke="white" stroke-width="0.525842" stroke-linecap="round"/>
<path d="M444.537 465.442L446.115 462.287L460.575 466.757L459.261 469.649L444.537 465.442Z" fill="#7567FF" stroke="white" stroke-width="0.525842" stroke-linecap="round"/>
<path d="M381.698 453.348L383.276 426.53L414.563 430.737L412.46 460.71L381.698 453.348Z" fill="#FEDF64" stroke="white" stroke-width="0.525842" stroke-linecap="round"/>
<path d="M345.416 464.127C353.198 463.496 371.094 450.893 379.07 444.671C405.993 464.653 413.074 456.678 413.249 450.192L414.827 486.212H395.371L392.742 483.32L383.802 486.212C367.151 488.579 331.218 486.212 331.218 486.212C331.218 486.212 329.903 465.385 345.416 464.127Z" fill="white" stroke="white" stroke-width="0.525842" stroke-linecap="round"/>
<path d="M363.557 472.805L354.617 458.87L358.035 456.767L367.237 470.701L363.557 472.805Z" fill="#7567FF" stroke="white" stroke-width="0.525842" stroke-linecap="round"/>
<path d="M368.29 469.386L359.351 455.451L362.769 453.348L371.971 467.282L368.29 469.386Z" fill="#7567FF" stroke="white" stroke-width="0.525842" stroke-linecap="round"/>
<path d="M496.146 238C495.146 239.5 493.146 242.7 493.146 243.5C493.146 244.5 493.646 245 494.646 245" stroke="#16023E" stroke-width="0.5"/>
<path d="M349 118C363 123 396.7 126.6 419.5 101" stroke="black"/>
<path d="M467 21L460.5 28M467 21L474 28M467 21C467.442 27.6344 460.518 46.4954 449.252 65.5" stroke="black"/>
<defs>
<linearGradient id="paint0_linear_322_1195" x1="251.432" y1="132.372" x2="251.432" y2="184.429" gradientUnits="userSpaceOnUse">
<stop stop-color="#FEDF64"/>
<stop offset="1" stop-color="white" stop-opacity="0"/>
</linearGradient>
</defs>
</svg>
