<svg width="200" height="172" viewBox="0 0 200 172" fill="none" xmlns="http://www.w3.org/2000/svg">
<path d="M96.8667 164.012L51.9995 134.855" stroke="#7567FF" stroke-width="0.813687"/>
<circle cx="97.3282" cy="164.218" r="3.53824" transform="rotate(41.4562 97.3282 164.218)" fill="#F1F1FF" stroke="#7567FF" stroke-width="1.4153"/>
<circle cx="144.5" cy="106.5" r="14.5" fill="#FBF6FF"/>
<circle cx="79.4995" cy="55.5" r="4.5" fill="#FBF6FF"/>
<path d="M171.5 149L112 149L112 111.5L145 111.5L145 77L199 77" stroke="#D0D0FF" stroke-width="0.5" stroke-linecap="round" stroke-linejoin="round"/>
<path d="M50.8672 135.012L6 105.855" stroke="#7567FF" stroke-width="0.813687"/>
<path d="M94.2725 107.21L96.6394 104.923L88.464 104.781C86.3567 104.744 84.3213 105.547 82.8058 107.012L94.2725 107.21Z" fill="#D0D0FF"/>
<path d="M65.7483 101.881L98.0224 70.6879C102.96 65.9162 110.828 66.0526 115.596 70.9925C120.365 75.9325 120.229 83.8053 115.292 88.577L105.54 98.0025L94.8968 97.818C90.4187 97.7404 86.0931 99.4459 82.8717 102.559L77.7435 107.516L65.4446 119.403C60.6929 114.481 60.8288 106.636 65.7483 101.881Z" fill="#D0D0FF"/>
<path d="M69.3523 119.552L77.1171 112.047C78.4639 110.745 80.2729 110.032 82.1458 110.065L92.9594 110.252L88.35 114.707C84.9828 117.961 80.4603 119.744 75.7782 119.663L69.3523 119.552Z" fill="#D0D0FF"/>
<path d="M56.1452 128.327L65.4753 119.309L69.5317 119.38L60.2016 128.397L56.1452 128.327Z" fill="#D0D0FF"/>
<path d="M133 135H52L52 43H133V89.5" stroke="#7567FF" stroke-width="2" stroke-linecap="round" stroke-linejoin="round"/>
<rect x="48.903" y="130.189" width="8.95056" height="8.95056" transform="rotate(2.67915 48.903 130.189)" fill="#F1F1FF" stroke="#7567FF" stroke-width="0.813687"/>
<circle cx="5.99323" cy="104.993" r="3.53824" transform="rotate(41.4562 5.99323 104.993)" fill="#F1F1FF" stroke="#7567FF" stroke-width="1.4153"/>
<path d="M68.9921 0.999166L69.4921 1C69.4921 3.26637 69.492 5.37458 69.4813 7.33501L68.9921 0.999166ZM68.9921 0.999166C68.9845 3.26522 68.9775 5.37312 68.9813 7.33326L68.9921 0.999166ZM69.2421 77H69.4921C69.4921 66.0708 69.4922 57.8884 69.9563 51.7548C70.4209 45.6141 71.3485 41.5758 73.1684 38.9032C74.9747 36.2506 77.6875 34.9065 81.8362 34.2295C85.9961 33.5508 91.5513 33.55 98.9995 33.55V33.3V33.05C92.052 33.05 86.7382 33.0497 82.6649 32.6455C78.5889 32.241 75.8024 31.4354 73.8791 29.8609C71.9635 28.2927 70.8641 25.9276 70.2451 22.3038C69.6256 18.6766 69.4938 13.8292 69.4813 7.33602L69.2421 77ZM69.2421 77H68.9921C68.9921 66.0706 68.9919 57.8888 68.5047 51.7557C68.017 45.6159 67.0434 41.5795 65.1334 38.9079C63.236 36.2539 60.384 34.9076 56.0232 34.2298C51.6534 33.5507 45.8186 33.55 37.9995 33.55V33.3V33.05M69.2421 77L37.9995 33.05M37.9995 33.05C45.2669 33.05 50.8272 33.0497 55.0911 32.6454C59.3583 32.2408 62.2807 31.4344 64.3016 29.8572C66.3129 28.2876 67.4704 25.9224 68.1301 22.3011C68.7907 18.6747 68.9455 13.828 68.9813 7.33427L37.9995 33.05Z" fill="white" stroke="#D0D0FF" stroke-width="0.5"/>
<mask id="mask0_4119_2533" style="mask-type:alpha" maskUnits="userSpaceOnUse" x="150" y="26" width="32" height="116">
<rect x="151" y="26" width="30.381" height="116" fill="#D9D9D9"/>
</mask>
<g mask="url(#mask0_4119_2533)">
<path d="M181.227 25.5391L150.539 56.2269" stroke="#D0D0FF" stroke-width="0.661239"/>
<path d="M181.227 19.8613L150.539 50.5492" stroke="#D0D0FF" stroke-width="0.661239"/>
<path d="M181.227 14.0312L150.539 44.7191" stroke="#D0D0FF" stroke-width="0.661239"/>
<path d="M181.227 8.20117L150.539 38.889" stroke="#D0D0FF" stroke-width="0.661239"/>
<path d="M181.227 1.75586L150.539 32.4437" stroke="#D0D0FF" stroke-width="0.661239"/>
<path d="M181.227 56.2266L150.539 86.9144" stroke="#D0D0FF" stroke-width="0.661239"/>
<path d="M181.227 50.5488L150.539 81.2367" stroke="#D0D0FF" stroke-width="0.661239"/>
<path d="M181.227 44.7188L150.539 75.4066" stroke="#D0D0FF" stroke-width="0.661239"/>
<path d="M181.227 38.8887L150.539 69.5765" stroke="#D0D0FF" stroke-width="0.661239"/>
<path d="M181.227 32.4434L150.539 63.1312" stroke="#D0D0FF" stroke-width="0.661239"/>
<path d="M181.227 86.9141L150.539 117.602" stroke="#D0D0FF" stroke-width="0.661239"/>
<path d="M181.227 81.2383L150.539 111.926" stroke="#D0D0FF" stroke-width="0.661239"/>
<path d="M181.227 75.4062L150.539 106.094" stroke="#D0D0FF" stroke-width="0.661239"/>
<path d="M181.227 69.5762L150.539 100.264" stroke="#D0D0FF" stroke-width="0.661239"/>
<path d="M181.227 63.1309L150.539 93.8187" stroke="#D0D0FF" stroke-width="0.661239"/>
<path d="M181.227 117.602L150.539 148.289" stroke="#D0D0FF" stroke-width="0.661239"/>
<path d="M181.227 123.895L150.539 154.582" stroke="#D0D0FF" stroke-width="0.661239"/>
<path d="M181.227 130.031L150.539 160.719" stroke="#D0D0FF" stroke-width="0.661239"/>
<path d="M181.227 136.477L150.539 167.164" stroke="#D0D0FF" stroke-width="0.661239"/>
<path d="M181.227 111.926L150.539 142.614" stroke="#D0D0FF" stroke-width="0.661239"/>
<path d="M181.227 106.096L150.539 136.784" stroke="#D0D0FF" stroke-width="0.661239"/>
<path d="M181.227 100.264L150.539 130.952" stroke="#D0D0FF" stroke-width="0.661239"/>
<path d="M181.227 93.8184L150.539 124.506" stroke="#D0D0FF" stroke-width="0.661239"/>
</g>
</svg>
